<svg width="24" height="22" viewBox="0 0 24 22" fill="none" xmlns="http://www.w3.org/2000/svg">
<g clip-path="url(#clip0_5_31)">
<path fill-rule="evenodd" clip-rule="evenodd" d="M6.51001 0.405253C6.46711 0.419553 6.41905 0.443093 6.40321 0.457613C6.38737 0.472133 6.36037 0.484013 6.34321 0.484013C6.32605 0.484013 6.31201 0.498863 6.31201 0.517013C6.31201 0.547208 6.28273 0.560133 6.23221 0.552048C6.22135 0.550343 6.21805 0.557273 6.22495 0.567448C6.23179 0.577678 6.21103 0.612108 6.17875 0.644063C6.14641 0.675963 6.12001 0.712098 6.12001 0.724363C6.12001 0.736628 6.09907 0.780793 6.07351 0.822538C5.97157 0.988913 6.09511 1.56586 6.24517 1.62433C6.25555 1.6284 6.26401 1.64088 6.26401 1.6521C6.26401 1.68417 6.36763 1.88019 6.38887 1.88833C6.39943 1.8924 6.40801 1.90983 6.40801 1.92716C6.40801 1.95724 6.45355 2.04491 6.48115 2.06801C6.48841 2.07406 6.50773 2.12109 6.52417 2.17251C6.54055 2.22394 6.56497 2.26601 6.57841 2.26601C6.59185 2.26601 6.59545 2.27701 6.58633 2.29049C6.57727 2.30391 6.57991 2.32123 6.59221 2.32899C6.62905 2.35214 6.72001 2.49965 6.72001 2.53628C6.72001 2.55504 6.73129 2.57379 6.74509 2.57803C6.75889 2.58221 6.77197 2.60778 6.77419 2.63484C6.77641 2.6619 6.78673 2.68401 6.79711 2.68401C6.80749 2.68401 6.81601 2.70546 6.81601 2.7317C6.81601 2.75788 6.82345 2.77251 6.83257 2.7642C6.84937 2.7488 7.05445 3.11362 7.05547 3.1607C7.05577 3.17478 7.06411 3.18963 7.07401 3.1937C7.09993 3.20426 7.20001 3.38647 7.20001 3.4231C7.20001 3.4401 7.20811 3.45407 7.21801 3.45418C7.23955 3.4544 7.29601 3.56093 7.29601 3.60141C7.29601 3.61714 7.30681 3.63001 7.32001 3.63001C7.33321 3.63001 7.34401 3.65042 7.34401 3.67533C7.34401 3.70025 7.35481 3.71449 7.36801 3.70701C7.38121 3.69953 7.39201 3.71378 7.39201 3.73869C7.39201 3.76361 7.40029 3.78401 7.41037 3.78401C7.42681 3.78401 7.51825 3.95501 7.51627 3.98201C7.51579 3.98806 7.53355 4.01204 7.55575 4.03531C7.58623 4.06732 7.58731 4.07298 7.56001 4.05857C7.52899 4.04218 7.52857 4.04471 7.55695 4.07678C7.57507 4.09724 7.58047 4.11429 7.56895 4.11467C7.55743 4.11506 7.56715 4.12556 7.59049 4.13805C7.61389 4.15053 7.62721 4.16934 7.62013 4.17985C7.61305 4.19035 7.63423 4.22566 7.66717 4.25828C7.70011 4.29089 7.72201 4.3251 7.71583 4.33429C7.70959 4.34347 7.72033 4.36305 7.73965 4.37774C7.75897 4.39242 7.78165 4.43824 7.79011 4.47954C7.79857 4.52085 7.81969 4.56193 7.83703 4.57084C7.85437 4.57975 7.86781 4.59196 7.86679 4.59801C7.86187 4.62766 7.90195 4.70801 7.92163 4.70801C7.93393 4.70801 7.94401 4.71791 7.94401 4.73001C7.94401 4.74827 8.03305 4.92053 8.16859 5.16435C8.18365 5.19146 8.20411 5.21374 8.21401 5.21385C8.22391 5.21396 8.23201 5.22496 8.23201 5.23832C8.23201 5.25174 8.25913 5.28221 8.29225 5.30608C8.32537 5.33001 8.34529 5.36015 8.33653 5.37318C8.32753 5.38655 8.33179 5.39045 8.34637 5.3822C8.36053 5.37417 8.38651 5.3805 8.40409 5.39623C8.44099 5.42934 8.59543 5.49099 8.62201 5.48324C8.63191 5.48038 8.64001 5.48659 8.64001 5.49704C8.64001 5.50749 8.73181 5.51789 8.84401 5.52014C8.98021 5.52289 9.04801 5.51618 9.04801 5.49985C9.04801 5.48643 9.05695 5.48049 9.06787 5.48665C9.09865 5.50414 9.29497 5.40536 9.38347 5.32781C9.42727 5.28942 9.47299 5.25801 9.48499 5.25801C9.49699 5.25801 9.50011 5.24806 9.49189 5.23585C9.48367 5.22369 9.49927 5.18503 9.52651 5.14999C9.55375 5.1149 9.57601 5.07101 9.57601 5.05242C9.57601 5.03383 9.58681 5.01249 9.60001 5.00501C9.61321 4.99753 9.62401 4.91278 9.62401 4.81669C9.62401 4.71489 9.61399 4.64201 9.60001 4.64201C9.58681 4.64201 9.57601 4.61715 9.57601 4.58674C9.57601 4.55632 9.56521 4.51425 9.55201 4.49324C9.53881 4.47223 9.51727 4.43026 9.50407 4.40001C9.49093 4.36976 9.47083 4.33016 9.45949 4.31201C9.39925 4.21549 9.20767 3.83659 9.21175 3.82191C9.21433 3.8125 9.20023 3.79908 9.18037 3.7921C9.16051 3.78511 9.15025 3.77054 9.15757 3.7597C9.16489 3.74887 9.16207 3.74001 9.15127 3.74001C9.14053 3.74001 9.11719 3.70784 9.09937 3.66851C9.08155 3.62919 9.03055 3.53162 8.98603 3.4517C8.94151 3.37179 8.91199 3.30001 8.92051 3.2922C8.92903 3.28439 8.92339 3.27801 8.90803 3.27801C8.89261 3.27801 8.88001 3.26316 8.88001 3.24501C8.88001 3.22686 8.86921 3.21201 8.85601 3.21201C8.84281 3.21201 8.83201 3.19304 8.83201 3.16983C8.83201 3.14667 8.82391 3.1244 8.81401 3.12033C8.78857 3.10999 8.64001 2.83807 8.64001 2.80193C8.64001 2.78549 8.62921 2.77201 8.61601 2.77201C8.60281 2.77201 8.59201 2.75161 8.59201 2.72669C8.59201 2.70178 8.58121 2.68753 8.56801 2.69501C8.55481 2.70249 8.54401 2.68825 8.54401 2.66333C8.54401 2.63842 8.53321 2.61801 8.52001 2.61801C8.50681 2.61801 8.49601 2.59821 8.49601 2.57401C8.49601 2.54981 8.48521 2.53001 8.47201 2.53001C8.45881 2.53001 8.44765 2.51269 8.44723 2.49151C8.44681 2.47034 8.43097 2.4342 8.41201 2.41127C8.39305 2.38833 8.38321 2.36111 8.39017 2.35077C8.39713 2.34043 8.39023 2.33201 8.37487 2.33201C8.35945 2.33201 8.35309 2.31716 8.36071 2.29901C8.36827 2.28086 8.36581 2.26601 8.35513 2.26601C8.34445 2.26601 8.31511 2.22652 8.28985 2.17829C8.26465 2.13 8.23525 2.0904 8.22457 2.09029C8.21389 2.09012 8.21137 2.08077 8.21899 2.06955C8.22655 2.05828 8.22181 2.04282 8.20843 2.03523C8.19499 2.02764 8.18401 2.00218 8.18401 1.97869C8.18401 1.95521 8.17321 1.93601 8.16001 1.93601C8.14681 1.93601 8.13601 1.91742 8.13601 1.89471C8.13601 1.87199 8.11993 1.84119 8.10025 1.82623C8.08063 1.81127 8.06989 1.79109 8.07643 1.78141C8.08297 1.77173 8.07697 1.76029 8.06311 1.75605C8.04925 1.75182 8.03611 1.7269 8.03395 1.70072C8.03179 1.67449 8.02147 1.65793 8.01103 1.66382C8.00059 1.66976 7.99201 1.6548 7.99201 1.6306C7.99201 1.6064 7.98121 1.58049 7.96801 1.57301C7.95481 1.56553 7.94401 1.54474 7.94401 1.52681C7.94401 1.50883 7.92241 1.47291 7.89601 1.44695C7.86961 1.42099 7.84801 1.38178 7.84801 1.35989C7.84801 1.33794 7.83853 1.32001 7.82695 1.32001C7.81531 1.32001 7.79161 1.28784 7.77427 1.24851C7.75693 1.20919 7.73347 1.17118 7.72219 1.16403C7.71085 1.15688 7.69987 1.12966 7.69771 1.10353C7.69555 1.07741 7.68601 1.05601 7.67647 1.05601C7.66693 1.05601 7.64545 1.02136 7.62877 0.979013C7.61203 0.936663 7.58971 0.902013 7.57921 0.902013C7.56865 0.902013 7.56001 0.882213 7.56001 0.858013C7.56001 0.833813 7.54921 0.814013 7.53601 0.814013C7.52281 0.814013 7.51201 0.798778 7.51201 0.780133C7.51201 0.745758 7.41901 0.611118 7.38601 0.597698C7.37611 0.593628 7.36801 0.575753 7.36801 0.557878C7.36801 0.540003 7.35721 0.531533 7.34401 0.539013C7.33081 0.546493 7.32001 0.543303 7.32001 0.531863C7.32001 0.520478 7.30111 0.505298 7.27801 0.498203C7.19935 0.473893 7.08127 0.402228 7.09663 0.388093C7.12417 0.362903 6.59029 0.378523 6.51001 0.405253ZM11.826 1.59067C11.7501 1.60189 11.688 1.62037 11.688 1.63181C11.688 1.64325 11.6779 1.64693 11.6657 1.63995C11.6534 1.63302 11.6364 1.63753 11.628 1.65001C11.6196 1.6625 11.6026 1.66701 11.5903 1.66008C11.5781 1.65309 11.568 1.66096 11.568 1.67751C11.568 1.69407 11.5251 1.7417 11.4726 1.78333C11.4201 1.82497 11.3769 1.87139 11.3766 1.88651C11.3763 1.90164 11.367 1.91401 11.3559 1.91401C11.329 1.91401 11.28 2.01494 11.28 2.07032C11.28 2.09469 11.2692 2.10849 11.256 2.10101C11.2401 2.09199 11.232 2.96204 11.232 4.69443C11.232 6.40867 11.2402 7.30605 11.256 7.31501C11.2692 7.32249 11.28 7.36325 11.28 7.4056C11.28 7.45136 11.2897 7.4771 11.304 7.46901C11.3253 7.45697 11.3397 7.50322 11.3302 7.55316C11.3284 7.56312 11.3379 7.56499 11.3514 7.55734C11.3739 7.54458 11.3868 7.57423 11.3782 7.61916C11.3764 7.62912 11.3845 7.63181 11.3962 7.62516C11.4169 7.61344 11.5023 7.68318 11.4901 7.70177C11.4867 7.70689 11.4883 7.70876 11.4935 7.70595C11.4987 7.7032 11.5468 7.73043 11.6002 7.76645C11.6537 7.80253 11.7271 7.83201 11.7633 7.83201C11.7996 7.83201 11.8359 7.84191 11.844 7.85401C11.8522 7.86611 11.8906 7.87601 11.9295 7.87601H12V4.73133C12 3.00175 11.9919 1.58297 11.982 1.57851C11.9721 1.574 11.9019 1.5795 11.826 1.59067ZM4.69159 4.77462C4.68325 4.78699 4.66369 4.79574 4.64821 4.79398C4.57507 4.78573 4.51063 4.79816 4.52401 4.81801C4.53217 4.83011 4.52095 4.84001 4.49905 4.84001C4.47715 4.84001 4.42903 4.86971 4.39201 4.90601C4.35499 4.94231 4.31107 4.97201 4.29439 4.97201C4.27765 4.97201 4.27057 4.97801 4.27855 4.98538C4.28659 4.99269 4.27387 5.01761 4.25041 5.04071C4.22689 5.06386 4.19389 5.10979 4.17703 5.1429C4.16017 5.17595 4.13689 5.22023 4.12519 5.24124C4.09723 5.29162 4.09777 5.69224 4.12579 5.7017C4.13779 5.70571 4.15129 5.72881 4.15579 5.75301C4.16035 5.77721 4.17763 5.81021 4.19425 5.82627C4.21087 5.84239 4.21729 5.8662 4.20853 5.87918C4.19911 5.89321 4.20385 5.8964 4.22029 5.8871C4.23649 5.87797 4.24801 5.88496 4.24801 5.90388C4.24801 5.92175 4.25785 5.93963 4.26985 5.9437C4.29493 5.95211 4.51651 6.12212 4.61035 6.20495C4.64527 6.23575 4.68463 6.25758 4.69783 6.25357C4.71109 6.2495 4.72765 6.26644 4.73473 6.29113C4.74175 6.31583 4.76473 6.33601 4.78579 6.33601C4.80679 6.33601 4.82401 6.34525 4.82401 6.35653C4.82401 6.3678 4.84639 6.38353 4.87375 6.39151C4.90465 6.40053 4.91839 6.41818 4.91005 6.43815C4.90261 6.4558 4.90597 6.46499 4.91743 6.4585C4.94143 6.44486 5.10445 6.55832 5.15395 6.62311C5.17231 6.64709 5.19733 6.66106 5.20963 6.65408C5.22193 6.64709 5.23201 6.65248 5.23201 6.66601C5.23201 6.67954 5.24281 6.68449 5.25601 6.67701C5.26921 6.66953 5.28001 6.68048 5.28001 6.70138C5.28001 6.72228 5.28667 6.73322 5.29489 6.72574C5.30305 6.71826 5.32333 6.72404 5.33995 6.73856C5.35651 6.75313 5.39407 6.77986 5.42329 6.79801C5.52043 6.85829 5.56729 6.9013 5.55157 6.91577C5.54299 6.92358 5.54917 6.93001 5.56531 6.93001C5.60911 6.93001 5.76217 7.03066 5.74387 7.04744C5.73517 7.05547 5.74147 7.06201 5.75785 7.06201C5.77429 7.06201 5.82013 7.09171 5.85973 7.12801C5.89933 7.16431 5.94769 7.19401 5.96725 7.19401C5.98681 7.19401 5.99749 7.20199 5.99095 7.21167C5.98441 7.2214 6.02083 7.25303 6.07195 7.28196C6.12307 7.31094 6.17053 7.3545 6.17749 7.37887C6.18445 7.40318 6.19741 7.41638 6.20641 7.40818C6.21535 7.39993 6.25627 7.41792 6.29737 7.44806C6.46897 7.57401 6.50803 7.60393 6.57607 7.66151C6.61537 7.69479 6.65623 7.72201 6.66679 7.72201C6.67735 7.72201 6.72607 7.75666 6.77509 7.79901C6.82405 7.84136 6.86905 7.87601 6.87511 7.87601C6.88111 7.87601 6.93037 7.91583 6.98449 7.96445C7.03867 8.01313 7.09513 8.0552 7.11001 8.05795C7.13491 8.06257 7.23451 8.13369 7.30963 8.20051C7.32667 8.21564 7.35277 8.22801 7.36771 8.22801C7.38265 8.22801 7.38817 8.23791 7.38001 8.25001C7.37185 8.26211 7.37713 8.27201 7.39171 8.27201C7.40629 8.27201 7.44739 8.29698 7.48309 8.32751C7.51879 8.35803 7.56511 8.39763 7.58605 8.41551C7.60693 8.43338 7.63729 8.44801 7.65343 8.44801C7.66963 8.44801 7.67617 8.45791 7.66801 8.47001C7.65985 8.48211 7.67065 8.49201 7.69201 8.49201C7.71337 8.49201 7.72423 8.5018 7.71619 8.51374C7.70803 8.52578 7.71673 8.53013 7.73569 8.52347C7.75447 8.51687 7.77625 8.52688 7.78417 8.54575C7.79203 8.56461 7.81129 8.58001 7.82689 8.58001C7.84249 8.58001 7.90063 8.62407 7.95613 8.67797C8.01163 8.73181 8.07205 8.77884 8.09029 8.78247C8.10859 8.78604 8.15227 8.81624 8.18743 8.84951C8.22253 8.88279 8.25781 8.91001 8.26585 8.91001C8.27911 8.91001 8.38447 8.98993 8.46163 9.05851C8.47867 9.07364 8.49865 9.08601 8.50603 9.08601C8.53699 9.08601 8.61601 9.16439 8.61637 9.19541C8.61661 9.21867 8.62225 9.22109 8.63467 9.20316C8.64721 9.18507 8.66797 9.19304 8.70349 9.22956C8.73145 9.25833 8.74753 9.28814 8.73919 9.29578C8.73085 9.30343 8.73481 9.30728 8.74801 9.30436C8.78719 9.29567 8.85679 9.33104 8.84245 9.35232C8.83513 9.36316 8.84815 9.37201 8.87131 9.37201C8.90851 9.37201 9.09835 9.47525 9.11401 9.50401C9.11731 9.51006 9.16369 9.51424 9.21715 9.51325C9.27055 9.51232 9.31855 9.51787 9.32377 9.52563C9.34003 9.54977 9.64207 9.50858 9.66163 9.47959C9.66889 9.46881 9.69583 9.46001 9.72145 9.46001C9.74707 9.46001 9.76801 9.45011 9.76801 9.43801C9.76801 9.42591 9.78367 9.41601 9.80281 9.41601C9.84649 9.41601 10.056 9.23655 10.056 9.19915C10.056 9.18391 10.0646 9.17627 10.075 9.18221C10.0855 9.18809 10.0955 9.17467 10.0974 9.15234C10.0992 9.13001 10.1183 9.06412 10.1399 9.00588C10.1885 8.87481 10.2048 8.74287 10.1784 8.69397C10.1575 8.65531 10.1053 8.51891 10.0969 8.48101C10.0942 8.46891 10.0731 8.44609 10.05 8.43025C10.0269 8.41446 10.008 8.39296 10.008 8.38245C10.008 8.37195 9.97561 8.33372 9.93601 8.29742C9.89641 8.26112 9.86401 8.23808 9.86401 8.24622C9.86395 8.25436 9.83695 8.23225 9.80401 8.1971C9.77101 8.16196 9.74401 8.14117 9.74401 8.15101C9.74401 8.1608 9.72265 8.15112 9.69655 8.12951C9.67051 8.10784 9.65593 8.08001 9.66427 8.06769C9.67261 8.05531 9.66853 8.05141 9.65521 8.05894C9.64189 8.06648 9.59509 8.04327 9.55117 8.00735C9.50731 7.97138 9.46249 7.94201 9.45169 7.94201C9.44089 7.94201 9.43471 7.93459 9.43801 7.92551C9.44131 7.91644 9.43711 7.90901 9.42871 7.90901C9.42031 7.90901 9.38977 7.88426 9.36091 7.85401C9.33199 7.82376 9.31645 7.81326 9.32641 7.83064C9.33631 7.84802 9.29935 7.82904 9.24421 7.78845C9.18913 7.74786 9.14401 7.70639 9.14401 7.69633C9.14401 7.68626 9.13009 7.67801 9.11299 7.67801C9.09595 7.67801 9.04309 7.64584 8.99545 7.60651C8.80693 7.4507 8.75845 7.41401 8.74135 7.41401C8.73157 7.41401 8.71009 7.39421 8.69359 7.37001C8.67709 7.34581 8.64481 7.32585 8.62183 7.32568C8.58607 7.32541 8.58523 7.32227 8.61601 7.30401C8.64745 7.28537 8.64715 7.28262 8.61349 7.28234C8.59237 7.28218 8.54587 7.25726 8.51029 7.22701C8.47465 7.19676 8.43529 7.17201 8.42275 7.17201C8.41027 7.17201 8.39995 7.16459 8.39983 7.15551C8.39977 7.14644 8.36665 7.1218 8.32633 7.10073C8.28595 7.07967 8.25979 7.05217 8.26825 7.03968C8.27665 7.02714 8.27467 7.01917 8.26381 7.02186C8.25289 7.02456 8.20621 7.00503 8.16001 6.97847C8.11381 6.9519 8.08669 6.93012 8.09971 6.93007C8.11273 6.93007 8.06647 6.89492 7.99699 6.85197C7.92265 6.8061 7.87735 6.76391 7.88701 6.74956C7.89649 6.73553 7.89253 6.73141 7.87765 6.73982C7.86349 6.74785 7.83517 6.73911 7.81483 6.72041C7.79443 6.70176 7.76923 6.68812 7.75885 6.69021C7.74847 6.6923 7.72933 6.67289 7.71631 6.64704C7.70329 6.62119 7.67851 6.60001 7.66123 6.60001C7.64395 6.60001 7.60285 6.57526 7.56985 6.54501C7.53685 6.51476 7.49953 6.49001 7.48693 6.49001C7.47433 6.49001 7.46671 6.47764 7.47001 6.46251C7.47331 6.44739 7.46251 6.43749 7.44601 6.44051C7.42951 6.44354 7.41601 6.43551 7.41601 6.42269C7.41601 6.40988 7.40599 6.40509 7.39375 6.41202C7.38151 6.41895 7.36507 6.40619 7.35727 6.3837C7.34947 6.36115 7.31569 6.33123 7.28221 6.31726C7.24873 6.30329 7.22839 6.28129 7.23709 6.26847C7.24573 6.2556 7.23823 6.24812 7.22041 6.25186C7.17901 6.26061 7.00801 6.13647 7.00801 6.0977C7.00801 6.08153 6.99451 6.07262 6.97801 6.07784C6.96151 6.08307 6.92611 6.06591 6.89935 6.03978C6.87253 6.01366 6.81643 5.97373 6.77461 5.95112C6.73285 5.92846 6.70405 5.90184 6.71071 5.892C6.71737 5.8821 6.70441 5.87401 6.68185 5.87401C6.65929 5.87401 6.60529 5.84046 6.56179 5.79943C6.51835 5.7584 6.47851 5.7287 6.47329 5.73354C6.46807 5.73833 6.40531 5.69042 6.33391 5.62712C6.26245 5.56381 6.19861 5.51178 6.19201 5.51145C6.16993 5.51041 5.99095 5.37978 5.92309 5.31527C5.88619 5.28018 5.85601 5.25823 5.85601 5.26648C5.85601 5.27473 5.81893 5.24751 5.77363 5.20593C5.72827 5.1644 5.68441 5.13663 5.67613 5.14427C5.66779 5.15186 5.63059 5.12612 5.59333 5.08707C5.55613 5.04797 5.51299 5.01601 5.49745 5.01601C5.48191 5.01601 5.47585 5.00611 5.48401 4.99401C5.49217 4.98191 5.48059 4.97201 5.45827 4.97201C5.43589 4.97201 5.39995 4.95331 5.37835 4.93049C5.33029 4.87972 5.17153 4.79601 5.12329 4.79601C5.10391 4.79601 5.08801 4.78611 5.08801 4.77401C5.08801 4.74464 4.71145 4.74519 4.69159 4.77462ZM0.552006 7.70001C0.552006 7.71211 0.524886 7.72201 0.491706 7.72201C0.458526 7.72201 0.407526 7.73439 0.378426 7.74951C0.320946 7.77938 0.0390061 8.03001 0.0629461 8.03001C0.0709261 8.03001 0.0600661 8.05443 0.0387661 8.08424C-0.039054 8.19314 -0.00473397 8.68253 0.0866461 8.7663C0.106866 8.78483 0.115626 8.80001 0.106026 8.80001C0.0865262 8.80001 0.220926 8.91705 0.326706 8.99224C0.364806 9.0193 0.419406 9.04157 0.448026 9.04174C0.476586 9.0419 0.503586 9.05098 0.508026 9.06198C0.512406 9.07298 0.553806 9.08513 0.600006 9.08898C0.646208 9.09289 0.689588 9.10301 0.696368 9.11142C0.703148 9.11989 0.751748 9.13111 0.804368 9.13639C0.856988 9.14167 0.916208 9.15152 0.936008 9.15834C0.970448 9.17022 1.04449 9.18314 1.22131 9.20822C1.26607 9.21455 1.32277 9.22956 1.34731 9.24166C1.37191 9.25371 1.39201 9.25932 1.39201 9.25409C1.39201 9.24892 1.43251 9.25371 1.48201 9.26476C1.53151 9.27582 1.62061 9.29083 1.68001 9.29815C1.73941 9.30541 1.79161 9.32009 1.79599 9.33071C1.80043 9.34132 1.85173 9.35001 1.90999 9.35001C1.96831 9.35001 2.01601 9.35799 2.01601 9.36772C2.01601 9.37746 2.06113 9.38785 2.11627 9.39082C2.17141 9.39379 2.22607 9.40166 2.23777 9.40826C2.24941 9.41486 2.29339 9.42454 2.33551 9.42976C2.37757 9.43499 2.43901 9.4456 2.47201 9.45336C2.50501 9.46111 2.55001 9.46821 2.57203 9.4692C2.59399 9.47019 2.62009 9.47844 2.62999 9.48751C2.63989 9.49659 2.68849 9.50401 2.73799 9.50401C2.78749 9.50401 2.83207 9.51512 2.83699 9.52865C2.84191 9.54224 2.89387 9.55274 2.95243 9.55197C3.01099 9.55126 3.06577 9.56077 3.07411 9.57315C3.08251 9.58552 3.13945 9.5957 3.20065 9.5957C3.26191 9.5957 3.31201 9.60477 3.31201 9.61583C3.31201 9.62694 3.35455 9.63601 3.40657 9.63601C3.45859 9.63601 3.50785 9.64591 3.51601 9.65801C3.52417 9.67011 3.57943 9.68001 3.63883 9.68001C3.69823 9.68001 3.74077 9.68898 3.73339 9.69998C3.72601 9.71098 3.77665 9.7255 3.84595 9.73226C4.11721 9.75872 4.19935 9.77318 4.18651 9.79221C4.17919 9.8031 4.22719 9.81201 4.29319 9.81201C4.35919 9.81201 4.41913 9.82087 4.42645 9.8317C4.43371 9.84254 4.48027 9.85634 4.52983 9.86239C4.69681 9.88285 4.78267 9.89864 4.86811 9.92443C4.98061 9.95853 5.47855 9.95903 5.49091 9.92509C5.49589 9.91129 5.51677 9.90001 5.53717 9.90001C5.55763 9.90001 5.59183 9.88203 5.61319 9.85997C5.63455 9.83797 5.67091 9.81355 5.69401 9.80569C5.71711 9.79782 5.73601 9.77621 5.73601 9.75773C5.73601 9.73837 5.75707 9.72401 5.78545 9.72401C5.81263 9.72401 5.82817 9.71411 5.82001 9.70201C5.81185 9.68991 5.81725 9.68001 5.83201 9.68001C5.84677 9.68001 5.85217 9.67011 5.84401 9.65801C5.83585 9.64591 5.84059 9.63601 5.85457 9.63601C5.86855 9.63601 5.88001 9.61621 5.88001 9.59201C5.88001 9.56781 5.89081 9.54801 5.90401 9.54801C5.91721 9.54801 5.92801 9.52761 5.92801 9.50269C5.92801 9.47778 5.93737 9.46271 5.94889 9.46925C5.98177 9.48784 5.98315 9.08744 5.95033 9.05114C5.92837 9.02689 5.92939 9.01996 5.95507 9.01968C5.98021 9.01941 5.98099 9.01523 5.95837 9.00208C5.94211 8.99262 5.90317 8.9385 5.87191 8.88185C5.84065 8.82526 5.80807 8.78533 5.79955 8.79314C5.79097 8.80095 5.78377 8.7933 5.78353 8.7762C5.78329 8.75904 5.72929 8.71575 5.66353 8.67995C5.59777 8.6442 5.54401 8.60922 5.54401 8.60229C5.54401 8.5953 5.51431 8.58738 5.47801 8.58463C5.44171 8.58188 5.40841 8.56984 5.40403 8.55785C5.39959 8.5458 5.35369 8.53601 5.30203 8.53601C5.25031 8.53601 5.20801 8.52798 5.20801 8.51814C5.20801 8.50829 5.15761 8.49784 5.09599 8.49493C5.03437 8.49201 4.96489 8.48024 4.94155 8.4688C4.91827 8.45736 4.86001 8.44801 4.81219 8.44801C4.76431 8.44801 4.73065 8.43993 4.73731 8.43008C4.74391 8.42018 4.69867 8.40973 4.63669 8.40687C4.57471 8.40401 4.52041 8.3923 4.51603 8.38086C4.51159 8.36936 4.45489 8.36001 4.39003 8.36001C4.32511 8.36001 4.27201 8.35011 4.27201 8.33801C4.27201 8.32591 4.23421 8.31601 4.18801 8.31601C4.13701 8.31601 4.10389 8.30523 4.10365 8.28851C4.10335 8.26827 4.09783 8.26888 4.08265 8.29088C4.06825 8.31167 4.05703 8.31332 4.04557 8.29638C4.03657 8.28296 3.99265 8.27201 3.94801 8.27201C3.90337 8.27201 3.86161 8.26426 3.85525 8.2548C3.84889 8.24534 3.81313 8.23522 3.77581 8.2323C3.69595 8.22598 3.64933 8.2174 3.60001 8.19985C3.58021 8.19281 3.52621 8.18231 3.48001 8.17648C3.43381 8.1707 3.37441 8.16086 3.34801 8.15464C3.32161 8.14848 3.27505 8.1426 3.24457 8.14172C3.21409 8.14078 3.19465 8.13193 3.20131 8.12208C3.20791 8.11218 3.16291 8.10173 3.10123 8.09876C3.03961 8.09585 2.98345 8.08661 2.97655 8.07825C2.96965 8.06989 2.91013 8.05982 2.84431 8.05586C2.77849 8.05196 2.71909 8.04206 2.71231 8.03386C2.70553 8.02572 2.68111 8.01819 2.65801 8.0172C2.54443 8.01225 2.51821 8.00647 2.52985 7.9892C2.53687 7.97886 2.50237 7.97193 2.45329 7.9738C2.40421 7.97567 2.34277 7.96775 2.31673 7.95626C2.29075 7.94476 2.22595 7.93426 2.17273 7.93299C2.11957 7.93167 2.07781 7.92084 2.08003 7.90885C2.08219 7.8968 2.04547 7.88503 1.99843 7.88261C1.95139 7.88019 1.89559 7.87106 1.87441 7.86237C1.85329 7.85363 1.80361 7.84362 1.76401 7.84015C1.60843 7.8264 1.48621 7.80319 1.47403 7.78504C1.46695 7.77459 1.40845 7.76601 1.34401 7.76601C1.27957 7.76601 1.22017 7.75611 1.21201 7.74401C1.20385 7.73191 1.14985 7.72201 1.09201 7.72201C1.03417 7.72201 0.980168 7.71211 0.972008 7.70001C0.963848 7.68791 0.865988 7.67801 0.754568 7.67801C0.635528 7.67801 0.552006 7.68709 0.552006 7.70001ZM8.66401 10.6093C8.66401 10.6185 8.61673 10.626 8.55895 10.626C8.50117 10.626 8.44237 10.6387 8.42833 10.6542C8.41429 10.6697 8.37007 10.6848 8.33011 10.6876C8.29009 10.6903 8.22937 10.7024 8.19505 10.7143C8.16073 10.7263 8.10835 10.7305 8.07859 10.7236C8.04505 10.7159 8.01265 10.7242 7.99351 10.7454C7.97647 10.7642 7.95391 10.7746 7.94329 10.7686C7.93273 10.7626 7.89667 10.7673 7.86319 10.7789C7.82977 10.7906 7.75927 10.8025 7.70659 10.8053C7.65397 10.8081 7.61629 10.8185 7.62283 10.8282C7.62943 10.838 7.60993 10.8468 7.57945 10.8477C7.54897 10.8486 7.50781 10.8529 7.48801 10.8571C7.28203 10.9015 7.19863 10.9175 7.12183 10.9272C7.07227 10.9335 7.02571 10.9475 7.01845 10.9583C7.01113 10.9692 6.97015 10.978 6.92737 10.978C6.88459 10.978 6.83935 10.9874 6.82675 10.999C6.81421 11.0105 6.76267 11.0225 6.71227 11.0255C6.66187 11.0287 6.61537 11.0391 6.60889 11.0486C6.60247 11.0582 6.55459 11.066 6.50257 11.066C6.45055 11.066 6.40801 11.0759 6.40801 11.088C6.40801 11.1001 6.37615 11.11 6.33721 11.11C6.29821 11.11 6.20371 11.1258 6.12721 11.1452C5.88067 11.2074 5.79829 11.224 5.68201 11.2352C5.61931 11.2413 5.56801 11.2552 5.56801 11.2662C5.56801 11.277 5.52157 11.286 5.46481 11.286C5.40805 11.286 5.35117 11.2956 5.33839 11.3073C5.32567 11.319 5.28031 11.3309 5.23759 11.334C5.19493 11.3369 5.16001 11.3472 5.16001 11.3567C5.16001 11.3662 5.11771 11.374 5.06599 11.374C5.01433 11.374 4.96843 11.3834 4.96399 11.3948C4.95961 11.4062 4.89985 11.4178 4.83121 11.4207C4.76257 11.4235 4.71193 11.4339 4.71865 11.4439C4.72537 11.4539 4.68703 11.462 4.63345 11.462C4.57987 11.462 4.53601 11.4718 4.53601 11.4838C4.53601 11.4958 4.50097 11.5021 4.45819 11.4978C4.41535 11.4935 4.35865 11.5015 4.33219 11.5155C4.30567 11.5295 4.25161 11.5403 4.21201 11.5395C4.17241 11.5387 4.13395 11.5458 4.12645 11.5552C4.11901 11.5646 4.06879 11.5748 4.01479 11.5777C3.96079 11.5806 3.92161 11.5904 3.92773 11.5995C3.93925 11.6167 3.93145 11.6182 3.79129 11.6252C3.74467 11.6275 3.69607 11.635 3.68329 11.6419C3.62989 11.6703 3.48559 11.7031 3.39601 11.7071C3.34321 11.7096 3.28813 11.7197 3.27361 11.7298C3.25903 11.7398 3.21853 11.7502 3.18361 11.7528C3.14863 11.7554 3.12001 11.7653 3.12001 11.7748C3.12001 11.7843 3.09229 11.792 3.05845 11.792C3.02455 11.792 2.97655 11.802 2.95171 11.8142C2.92687 11.8263 2.87977 11.8383 2.84701 11.8409C2.81425 11.8433 2.79271 11.8532 2.79913 11.8627C2.80561 11.8722 2.79337 11.88 2.77201 11.88C2.74849 11.88 2.74003 11.8901 2.75053 11.9058C2.76259 11.9237 2.75413 11.9267 2.72269 11.9156C2.69779 11.9069 2.68411 11.9058 2.69221 11.9132C2.70031 11.9206 2.68375 11.9496 2.65549 11.9776C2.50849 12.1231 2.47201 12.1716 2.47201 12.2214C2.47201 12.2514 2.46121 12.276 2.44801 12.276C2.43355 12.276 2.42401 12.3677 2.42401 12.507C2.42401 12.6341 2.43277 12.738 2.44351 12.738C2.45425 12.738 2.47789 12.7727 2.49601 12.815C2.51413 12.8574 2.53777 12.892 2.54851 12.892C2.55925 12.892 2.56801 12.9069 2.56801 12.925C2.56801 12.9432 2.57947 12.958 2.59345 12.958C2.60743 12.958 2.61217 12.9679 2.60401 12.98C2.59585 12.9921 2.60665 13.002 2.62801 13.002C2.64937 13.002 2.66017 13.0119 2.65201 13.024C2.64385 13.0361 2.65465 13.046 2.67601 13.046C2.69923 13.046 2.70799 13.0562 2.69773 13.0714C2.68813 13.0856 2.69107 13.0909 2.70427 13.0834C2.71735 13.076 2.76703 13.0942 2.81473 13.124C2.86243 13.1537 2.92363 13.178 2.95075 13.178C2.97781 13.178 3.00001 13.1854 3.00001 13.1945C3.00001 13.2036 3.09103 13.2114 3.20227 13.2118C3.31351 13.2123 3.39931 13.2049 3.39289 13.1953C3.38113 13.178 3.45265 13.1678 3.53719 13.1748C3.56209 13.1769 3.59509 13.1689 3.61057 13.1571C3.62605 13.1453 3.68293 13.1329 3.73705 13.1293C3.79111 13.1259 3.83035 13.1156 3.82429 13.1065C3.81817 13.0974 3.84349 13.0885 3.88057 13.0867C3.99229 13.0811 4.00393 13.0791 4.02229 13.0622C4.03207 13.0533 4.08049 13.046 4.12999 13.046C4.17949 13.046 4.22359 13.0366 4.22803 13.0251C4.23241 13.0136 4.28191 13.0018 4.33801 12.9988C4.39411 12.9959 4.44001 12.9855 4.44001 12.9757C4.44001 12.966 4.47565 12.958 4.51921 12.958C4.56277 12.958 4.60867 12.9487 4.62121 12.9373C4.63375 12.9259 4.69969 12.9136 4.76773 12.9099C4.83583 12.9061 4.88647 12.8957 4.88035 12.8866C4.87417 12.8774 4.90699 12.87 4.95319 12.87C4.99939 12.87 5.04385 12.8601 5.05201 12.848C5.06017 12.8359 5.10943 12.826 5.16145 12.826C5.21347 12.826 5.25601 12.8161 5.25601 12.804C5.25601 12.7919 5.29705 12.782 5.34721 12.782C5.39737 12.782 5.44867 12.7731 5.46121 12.7623C5.48239 12.744 5.53105 12.7354 5.80201 12.7021C5.85811 12.6952 5.90401 12.6807 5.90401 12.6698C5.90401 12.6589 5.92507 12.65 5.95081 12.65C5.97661 12.65 6.06031 12.6337 6.13681 12.6138C6.21337 12.5939 6.32731 12.5731 6.39001 12.5676C6.45271 12.5622 6.50401 12.5488 6.50401 12.5379C6.50401 12.527 6.55327 12.518 6.61345 12.518C6.68023 12.518 6.71707 12.5094 6.70801 12.496C6.69907 12.4827 6.73177 12.474 6.79057 12.474C6.84415 12.474 6.88801 12.4641 6.88801 12.452C6.88801 12.4399 6.94201 12.43 7.00801 12.43C7.07401 12.43 7.12801 12.4201 7.12801 12.408C7.12801 12.3959 7.17595 12.386 7.23457 12.386C7.29319 12.386 7.34701 12.3774 7.35415 12.3668C7.36129 12.3561 7.39555 12.3475 7.43029 12.3475C7.46503 12.3475 7.50037 12.3379 7.50871 12.3261C7.51711 12.3143 7.56991 12.3057 7.62601 12.3069C7.68211 12.308 7.73161 12.2991 7.73599 12.287C7.74043 12.2749 7.78093 12.2641 7.82599 12.263C7.87111 12.2619 7.93501 12.2508 7.96801 12.2382C8.00101 12.2257 8.05501 12.2169 8.08801 12.2189C8.12101 12.2207 8.15437 12.2141 8.16217 12.204C8.16997 12.194 8.20285 12.1832 8.23519 12.18C8.26759 12.1768 8.30515 12.168 8.31871 12.1603C8.33227 12.1526 8.39389 12.1433 8.45569 12.1397C8.51743 12.136 8.56801 12.1256 8.56801 12.1165C8.56801 12.1074 8.60581 12.1 8.65201 12.1C8.70301 12.1 8.73613 12.0892 8.73637 12.0725C8.73661 12.0542 8.74453 12.056 8.76001 12.078C8.77279 12.0962 8.78347 12.1007 8.78365 12.0881C8.78383 12.0754 8.85151 12.0524 8.93401 12.037C9.01651 12.0215 9.11101 11.996 9.14401 11.9803C9.17701 11.9647 9.21901 11.9568 9.23737 11.9628C9.25567 11.9688 9.26485 11.965 9.25771 11.9544C9.25057 11.9437 9.28123 11.9103 9.32587 11.88C9.37051 11.8498 9.41335 11.8077 9.42115 11.7865C9.42889 11.7653 9.44863 11.748 9.46501 11.748C9.49759 11.748 9.57601 11.602 9.57601 11.5413C9.57601 11.5205 9.58537 11.5087 9.59689 11.5153C9.60835 11.5217 9.61969 11.4381 9.62209 11.3295C9.62485 11.2036 9.61729 11.132 9.60121 11.132C9.58735 11.132 9.57601 11.1166 9.57601 11.0976C9.57601 11.0325 9.45073 10.8289 9.39343 10.8007C9.36187 10.7852 9.33601 10.7588 9.33601 10.742C9.33601 10.7252 9.32521 10.7175 9.31207 10.725C9.28555 10.74 9.18481 10.684 9.20497 10.6654C9.21751 10.654 9.07681 10.6174 9.04201 10.623C9.03211 10.6247 9.02401 10.6178 9.02401 10.6076C9.02401 10.5976 8.94301 10.5901 8.84401 10.591C8.74501 10.592 8.66401 10.6002 8.66401 10.6093ZM10.4764 12.7595C10.468 12.7719 10.4132 12.782 10.3546 12.782C10.296 12.782 10.248 12.7919 10.248 12.804C10.248 12.8161 10.2318 12.826 10.212 12.826C10.1922 12.826 10.176 12.8359 10.176 12.848C10.176 12.8601 10.149 12.87 10.116 12.87C10.0815 12.87 10.056 12.8827 10.056 12.8999C10.056 12.9164 10.0294 12.9482 9.99679 12.9706C9.96427 12.993 9.92515 13.039 9.90991 13.0727C9.89467 13.1064 9.86731 13.134 9.84907 13.134C9.83023 13.134 9.81601 13.1566 9.81601 13.1865C9.81601 13.2535 9.75739 13.3584 9.73177 13.3372C9.72109 13.3283 9.71947 13.3325 9.72823 13.3465C9.74917 13.38 9.72127 13.4453 9.69289 13.4293C9.68077 13.4224 9.67237 13.4249 9.67423 13.4349C9.68365 13.4846 9.66931 13.5311 9.64831 13.5192C9.63439 13.5113 9.63085 13.5208 9.63979 13.5421C9.64813 13.5621 9.64189 13.5859 9.62593 13.5949C9.60991 13.604 9.59407 13.6285 9.59071 13.6495C9.58735 13.6704 9.56917 13.6965 9.55033 13.7074C9.53143 13.7184 9.52357 13.7275 9.53275 13.7277C9.55777 13.7282 9.50287 13.86 9.47767 13.86C9.46573 13.86 9.45601 13.8761 9.45601 13.8958C9.45601 13.941 9.31615 14.1955 9.27943 14.2172C9.26437 14.2261 9.26041 14.2335 9.27061 14.2337C9.28087 14.2338 9.27061 14.2662 9.24787 14.3055C9.22513 14.3448 9.20599 14.3869 9.20527 14.399C9.20329 14.4338 9.11185 14.564 9.08941 14.564C9.07831 14.564 9.07465 14.5722 9.08137 14.5821C9.08809 14.592 9.07789 14.6278 9.05881 14.6616C9.03967 14.6954 9.02401 14.7373 9.02401 14.7548C9.02401 14.7723 9.01453 14.7813 9.00295 14.7747C8.99131 14.7681 8.97565 14.7911 8.96809 14.8257C8.96053 14.8604 8.93689 14.9047 8.91547 14.9244C8.89411 14.944 8.88295 14.96 8.89081 14.96C8.89861 14.96 8.88229 15.0008 8.85457 15.0506C8.82685 15.1004 8.79979 15.1622 8.79439 15.1881C8.78899 15.2139 8.76751 15.2465 8.74669 15.2605C8.72587 15.2746 8.70943 15.2944 8.71015 15.3045C8.71309 15.3468 8.68297 15.3997 8.66257 15.3882C8.65045 15.3813 8.64625 15.3893 8.65315 15.4058C8.66779 15.4408 8.62165 15.53 8.55955 15.5869C8.52505 15.6185 8.52283 15.6301 8.54821 15.6449C8.56573 15.655 8.56921 15.6636 8.55601 15.6638C8.52973 15.6644 8.47201 15.7658 8.47201 15.8114C8.47201 15.8271 8.46121 15.84 8.44801 15.84C8.43481 15.84 8.42401 15.8598 8.42401 15.884C8.42401 15.9082 8.41321 15.928 8.40001 15.928C8.38681 15.928 8.37601 15.9478 8.37601 15.972C8.37601 15.9962 8.36791 16.0161 8.35801 16.0162C8.33611 16.0164 8.28001 16.1232 8.28001 16.1647C8.28001 16.1811 8.26921 16.1885 8.25601 16.181C8.24281 16.1735 8.23201 16.1833 8.23201 16.2028C8.23201 16.2383 8.18461 16.3349 8.09695 16.478C8.07103 16.5204 8.03515 16.5968 8.01727 16.648C7.99939 16.6991 7.96477 16.7605 7.94035 16.7845C7.91599 16.8085 7.89601 16.849 7.89601 16.8744C7.89601 16.8998 7.88665 16.9153 7.87519 16.9088C7.86373 16.9023 7.85551 16.9141 7.85695 16.935C7.86031 16.9846 7.74985 17.1834 7.72633 17.1701C7.71637 17.1644 7.71109 17.1772 7.71457 17.1984C7.71805 17.2196 7.70503 17.2593 7.68565 17.2865C7.66633 17.3137 7.65661 17.336 7.66411 17.336C7.67161 17.336 7.65085 17.3626 7.61797 17.3951C7.58515 17.4276 7.56343 17.4664 7.56973 17.4815C7.57603 17.4965 7.56571 17.5205 7.54687 17.5349C7.52797 17.5492 7.51843 17.5698 7.52569 17.5805C7.53295 17.5912 7.52977 17.6 7.51867 17.6C7.50757 17.6 7.49605 17.6272 7.49305 17.6605C7.49005 17.6938 7.47691 17.7243 7.46383 17.7283C7.45069 17.7324 7.44001 17.7547 7.44001 17.7778C7.44001 17.801 7.42921 17.82 7.41601 17.82C7.40281 17.82 7.39201 17.8448 7.39201 17.875C7.39201 17.9053 7.38121 17.93 7.36801 17.93C7.35445 17.93 7.34401 17.9924 7.34401 18.0733C7.34401 18.1521 7.35481 18.2363 7.36801 18.2603C7.38121 18.2843 7.40281 18.3237 7.41601 18.3477C7.42921 18.3718 7.44001 18.4019 7.44001 18.4146C7.44001 18.4274 7.46161 18.4591 7.48801 18.4851C7.51441 18.511 7.53601 18.5446 7.53601 18.5597C7.53601 18.5747 7.55779 18.5934 7.58437 18.6011C7.61095 18.6089 7.62649 18.6244 7.61893 18.6356C7.61137 18.6468 7.62265 18.656 7.64401 18.656C7.66831 18.656 7.67635 18.6663 7.66555 18.6835C7.65607 18.6986 7.65679 18.704 7.66723 18.6954C7.67761 18.6868 7.71985 18.6962 7.76107 18.7163C7.80229 18.7365 7.84867 18.7507 7.86421 18.7479C7.87969 18.7451 7.89925 18.753 7.90759 18.7654C7.95523 18.8361 8.47615 18.7712 8.56987 18.6829C8.63821 18.6186 8.71201 18.5676 8.71213 18.5847C8.71231 18.6011 8.74531 18.5488 8.84389 18.376C8.87311 18.3248 8.90395 18.2893 8.91247 18.2971C8.92105 18.3049 8.92801 18.2868 8.92801 18.2568C8.92801 18.2268 8.95015 18.1805 8.97721 18.1539C9.00433 18.1272 9.02041 18.0964 9.01303 18.0855C9.00559 18.0746 9.01315 18.052 9.02977 18.0354C9.07075 17.9946 9.12001 17.9135 9.12001 17.8869C9.12001 17.8533 9.24379 17.6157 9.28381 17.5725C9.30343 17.5513 9.30967 17.5338 9.29773 17.5337C9.28579 17.5335 9.28975 17.5253 9.30655 17.5155C9.32341 17.5058 9.34141 17.4775 9.34663 17.4526C9.36229 17.378 9.45553 17.204 9.47983 17.204C9.49231 17.204 9.49669 17.1902 9.48961 17.1732C9.48253 17.1563 9.48829 17.1359 9.50239 17.1279C9.51649 17.12 9.52801 17.0942 9.52801 17.0707C9.52801 17.0472 9.53611 17.028 9.54601 17.0278C9.56707 17.0276 9.62401 16.9215 9.62401 16.8825C9.62401 16.8677 9.63211 16.8524 9.64201 16.8483C9.66793 16.8378 9.76801 16.6556 9.76801 16.6189C9.76801 16.6019 9.77881 16.588 9.79201 16.588C9.80521 16.588 9.81601 16.5682 9.81601 16.544C9.81601 16.5198 9.82681 16.5 9.84001 16.5C9.85321 16.5 9.86401 16.4808 9.86401 16.4573C9.86401 16.4338 9.87481 16.4085 9.88801 16.401C9.90121 16.3935 9.91201 16.3736 9.91201 16.3568C9.91201 16.34 9.94441 16.2822 9.98401 16.2284C10.0236 16.1746 10.056 16.1141 10.056 16.094C10.056 16.0739 10.0645 16.0622 10.0749 16.0682C10.0853 16.074 10.0962 16.0523 10.0992 16.0199C10.102 15.9875 10.1151 15.9577 10.1282 15.9537C10.1413 15.9496 10.152 15.9274 10.152 15.9042C10.152 15.881 10.1602 15.862 10.1701 15.862C10.1802 15.862 10.2028 15.8298 10.2205 15.7905C10.2382 15.7512 10.2838 15.6635 10.3219 15.5958C10.3599 15.5279 10.3841 15.4661 10.3755 15.4583C10.367 15.4504 10.3726 15.444 10.388 15.444C10.4034 15.444 10.416 15.4254 10.416 15.4027C10.416 15.38 10.4321 15.3492 10.4518 15.3342C10.4714 15.3193 10.4816 15.2983 10.4743 15.2875C10.4671 15.2768 10.4726 15.268 10.4866 15.268C10.5006 15.268 10.512 15.2482 10.512 15.224C10.512 15.1998 10.5228 15.18 10.536 15.18C10.5492 15.18 10.56 15.1693 10.56 15.1561C10.56 15.1321 10.5996 15.0525 10.8221 14.6291C10.8892 14.5015 10.944 14.386 10.944 14.3724C10.944 14.3588 10.9521 14.3444 10.962 14.3403C10.9866 14.3304 11.136 14.0618 11.136 14.0277C11.136 14.0126 11.1573 13.9794 11.1832 13.9539C11.2092 13.9283 11.2353 13.8844 11.2412 13.8562C11.2471 13.8281 11.2691 13.7682 11.29 13.7232C11.3109 13.6782 11.3282 13.604 11.3284 13.5582C11.3287 13.4964 11.3347 13.4835 11.352 13.508C11.3721 13.5364 11.3754 13.5359 11.3757 13.5038C11.3758 13.4834 11.3652 13.4605 11.352 13.453C11.3388 13.4455 11.328 13.4068 11.328 13.367C11.328 13.2813 11.2842 13.1569 11.2394 13.1158C11.2219 13.0996 11.2147 13.0758 11.2235 13.0628C11.2323 13.0499 11.2286 13.0454 11.2153 13.0529C11.2021 13.0604 11.1771 13.0423 11.1598 13.0126C11.1425 12.983 11.1085 12.953 11.0842 12.9459C11.0599 12.9388 11.04 12.9183 11.04 12.9002C11.04 12.8822 11.0301 12.873 11.0181 12.8799C11.0059 12.8867 10.9637 12.8674 10.9242 12.8368C10.8733 12.7976 10.8487 12.7895 10.84 12.8092C10.8304 12.8311 10.8274 12.8312 10.8259 12.8095C10.8247 12.7926 10.7886 12.782 10.732 12.782C10.6814 12.782 10.6324 12.775 10.6231 12.7665C10.5947 12.7404 10.4925 12.7355 10.4764 12.7595ZM6.64069 13.9191C6.63349 13.9297 6.59173 13.9409 6.54781 13.9439C6.50395 13.9469 6.46441 13.959 6.46003 13.9707C6.45559 13.9824 6.43657 13.992 6.41767 13.992C6.37699 13.992 6.29713 14.0319 6.23071 14.0855C6.20443 14.1067 6.17371 14.124 6.16237 14.124C6.15109 14.124 6.11641 14.1463 6.08533 14.1735C5.95165 14.2906 5.84623 14.366 5.81623 14.366C5.79853 14.366 5.78671 14.3749 5.79001 14.3858C5.79331 14.3967 5.78617 14.4057 5.77417 14.4058C5.76217 14.4059 5.74273 14.4218 5.73097 14.441C5.71921 14.4603 5.69335 14.476 5.67343 14.476C5.65345 14.476 5.64385 14.4859 5.65201 14.498C5.66017 14.5101 5.65057 14.52 5.63065 14.52C5.61073 14.52 5.56711 14.5529 5.53363 14.5931C5.50021 14.6333 5.44345 14.6803 5.40757 14.6976C5.37163 14.7149 5.28907 14.776 5.22409 14.8335C5.15905 14.891 5.09641 14.938 5.08495 14.938C5.07343 14.938 5.06401 14.9479 5.06401 14.96C5.06401 14.9721 5.05177 14.982 5.03683 14.982C5.02189 14.982 4.98949 15.0034 4.96483 15.0294C4.94017 15.0554 4.92001 15.0701 4.92001 15.062C4.92001 15.0538 4.88353 15.0816 4.83901 15.1237C4.79443 15.1658 4.75123 15.194 4.74301 15.1864C4.73473 15.1789 4.72801 15.1889 4.72801 15.2087C4.72801 15.2332 4.71529 15.2402 4.68805 15.2306C4.66393 15.2221 4.65409 15.2254 4.66327 15.239C4.67155 15.2513 4.65073 15.2749 4.61701 15.2915C4.58329 15.3081 4.51795 15.3542 4.47187 15.394C4.42585 15.4338 4.37653 15.4599 4.36237 15.4518C4.34821 15.4438 4.34347 15.4474 4.35187 15.4599C4.36027 15.4723 4.33897 15.501 4.30465 15.5238C4.27027 15.5464 4.21513 15.5898 4.18207 15.62C4.14901 15.6503 4.13029 15.6602 4.14043 15.642C4.15753 15.6115 3.98191 15.7527 3.88303 15.8489C3.85939 15.8719 3.84001 15.8847 3.84001 15.8772C3.84001 15.8698 3.79735 15.9005 3.74527 15.9454C3.62041 16.0529 3.56791 16.0931 3.55261 16.0927C3.54565 16.0926 3.50263 16.1248 3.45703 16.1642C3.41137 16.2037 3.36007 16.236 3.34303 16.236C3.32593 16.236 3.31201 16.2465 3.31201 16.2593C3.31201 16.2721 3.29953 16.2756 3.28429 16.2669C3.26785 16.2576 3.26311 16.2608 3.27253 16.2748C3.28129 16.2879 3.25867 16.3192 3.22225 16.3446C3.18583 16.3699 3.12577 16.4155 3.08887 16.4459C3.05191 16.4764 3.00973 16.4945 2.99515 16.4863C2.98051 16.478 2.97529 16.4811 2.98351 16.4933C2.99881 16.5161 2.89717 16.61 2.85721 16.61C2.84485 16.61 2.82061 16.6285 2.80339 16.651C2.77255 16.6914 2.75971 16.698 2.71201 16.698C2.69881 16.698 2.68801 16.7178 2.68801 16.742C2.68801 16.7718 2.67199 16.786 2.63857 16.786C2.61139 16.786 2.59531 16.7951 2.60275 16.8061C2.61019 16.8172 2.60485 16.8297 2.59087 16.834C2.57683 16.8383 2.56291 16.8575 2.55985 16.8766C2.55679 16.8957 2.53573 16.9373 2.51311 16.9689C2.49049 17.0006 2.47201 17.0522 2.47201 17.0836C2.47201 17.1149 2.46361 17.1359 2.45335 17.13C2.41993 17.1111 2.42395 17.3883 2.45881 17.501C2.47747 17.5615 2.49421 17.6011 2.49589 17.589C2.49841 17.5714 2.53621 17.6404 2.55013 17.688C2.55187 17.6941 2.57281 17.7182 2.59669 17.7416C2.62051 17.7651 2.64001 17.7908 2.64001 17.7987C2.64001 17.8066 2.68051 17.8319 2.73001 17.855C2.77951 17.8781 2.82541 17.902 2.83201 17.908C2.86741 17.9405 2.95879 17.974 3.01171 17.974C3.04489 17.974 3.07201 17.9818 3.07201 17.9912C3.07201 18.0007 3.12061 18.0092 3.18001 18.0101C3.23941 18.011 3.28801 18.0033 3.28801 17.9929C3.28801 17.9825 3.33121 17.974 3.38401 17.974C3.43681 17.974 3.48001 17.9641 3.48001 17.952C3.48001 17.9399 3.50161 17.93 3.52801 17.93C3.55441 17.93 3.57601 17.9201 3.57601 17.908C3.57601 17.8959 3.59269 17.886 3.61309 17.886C3.63349 17.886 3.67519 17.8637 3.70579 17.8365C3.73639 17.8093 3.78637 17.7722 3.81691 17.754C3.84739 17.7359 3.90427 17.694 3.94327 17.661C3.98227 17.6279 4.02625 17.6072 4.04107 17.615C4.05589 17.6227 4.06057 17.6215 4.05145 17.6122C4.03387 17.5942 4.23511 17.424 4.27399 17.424C4.28671 17.424 4.35085 17.3724 4.41655 17.3092C4.48225 17.246 4.53601 17.2008 4.53601 17.2085C4.53601 17.224 4.61467 17.1663 4.74439 17.0555C4.79047 17.0162 4.83631 16.984 4.84633 16.984C4.85635 16.984 4.88389 16.9644 4.90747 16.9405C4.93111 16.9166 4.96147 16.9033 4.97491 16.9109C4.98859 16.9187 4.99219 16.9141 4.98307 16.9005C4.97401 16.8872 4.98835 16.8656 5.01481 16.8526C5.04127 16.8396 5.09029 16.8039 5.12371 16.7733C5.15719 16.7426 5.19673 16.7246 5.21191 16.7332C5.22703 16.7418 5.23303 16.7393 5.22523 16.7278C5.21743 16.7162 5.25355 16.6826 5.30551 16.6531C5.35747 16.6237 5.40001 16.5855 5.40001 16.5682C5.40001 16.5508 5.40673 16.5429 5.41495 16.5504C5.42317 16.5579 5.47219 16.5249 5.52385 16.477C5.57557 16.4292 5.62795 16.39 5.64031 16.39C5.65267 16.39 5.71135 16.3455 5.77075 16.291C5.83015 16.2366 5.88715 16.1918 5.89735 16.1916C5.90761 16.1914 5.97133 16.1444 6.03901 16.0871C6.20659 15.9453 6.28807 15.8877 6.36601 15.8561C6.40231 15.8413 6.43201 15.8191 6.43201 15.8065C6.43201 15.7792 6.51889 15.708 6.55231 15.708C6.56533 15.708 6.57601 15.6981 6.57601 15.686C6.57601 15.6739 6.58951 15.6636 6.60601 15.6631C6.62251 15.6626 6.66253 15.6329 6.69487 15.5971C6.72727 15.5613 6.76273 15.532 6.77371 15.532C6.78463 15.532 6.83047 15.4998 6.87553 15.4605C6.98413 15.3656 7.03201 15.3299 7.03201 15.3435C7.03201 15.3536 7.08961 15.3081 7.29967 15.1317C7.33855 15.0991 7.36987 15.0669 7.36921 15.0602C7.36489 15.0161 7.37191 15.004 7.40179 15.004C7.42369 15.004 7.43113 14.9886 7.42297 14.96C7.41607 14.9358 7.42123 14.916 7.43449 14.916C7.46185 14.916 7.48381 14.8302 7.50349 14.6465C7.51195 14.5674 7.50787 14.52 7.49263 14.52C7.47919 14.52 7.47151 14.4928 7.47547 14.4595C7.47949 14.4259 7.46263 14.3731 7.43737 14.3406C7.41241 14.3085 7.39201 14.2728 7.39201 14.2612C7.39201 14.2246 7.10077 13.992 7.05487 13.992C7.03069 13.992 7.00489 13.9832 6.99757 13.9723C6.99031 13.9615 6.94375 13.9472 6.89419 13.9406C6.84457 13.9339 6.77017 13.9221 6.72883 13.9141C6.68749 13.9063 6.64783 13.9085 6.64069 13.9191ZM11.868 15.5772C11.7412 15.5952 11.664 15.6207 11.664 15.6446C11.664 15.6553 11.6462 15.664 11.6244 15.664C11.6026 15.664 11.5329 15.7137 11.4693 15.7745C11.3628 15.8763 11.3358 15.9166 11.2596 16.0882C11.1969 16.2292 11.2427 21.45 11.3067 21.45C11.3184 21.45 11.328 21.4629 11.328 21.4787C11.328 21.4945 11.3657 21.5451 11.4118 21.5912C11.4578 21.6373 11.4894 21.684 11.482 21.695C11.4745 21.7061 11.4774 21.7137 11.4882 21.712C11.5368 21.7042 11.5696 21.7158 11.556 21.736C11.5479 21.7481 11.5648 21.758 11.5938 21.758C11.6227 21.758 11.6641 21.7767 11.6857 21.7996C11.7131 21.8285 11.7653 21.8436 11.8566 21.8491L11.988 21.857L11.9941 18.7232C11.9974 16.9996 11.992 15.5835 11.9821 15.5765C11.9722 15.5694 11.9208 15.5697 11.868 15.5772Z" fill="#4FBDFD"/>
<path fill-rule="evenodd" clip-rule="evenodd" d="M16.536 0.176019C16.536 0.188119 16.5144 0.198019 16.488 0.198019C16.4616 0.198019 16.44 0.207919 16.44 0.220019C16.44 0.232119 16.4235 0.242019 16.4034 0.242019C16.3558 0.242019 16.152 0.428799 16.152 0.472414C16.152 0.490894 16.1412 0.506019 16.128 0.506019C16.1148 0.506019 16.104 0.520869 16.104 0.539019C16.104 0.557169 16.0932 0.572019 16.08 0.572019C16.0668 0.572019 16.056 0.591819 16.056 0.616019C16.056 0.640219 16.0472 0.660019 16.0363 0.660019C16.0255 0.660019 16.002 0.709519 15.984 0.770019C15.966 0.830519 15.9425 0.880019 15.9317 0.880019C15.9208 0.880019 15.912 0.899819 15.912 0.924019C15.912 0.948219 15.9012 0.968019 15.888 0.968019C15.8748 0.968019 15.864 0.987819 15.864 1.01202C15.864 1.03622 15.8532 1.05602 15.84 1.05602C15.8268 1.05602 15.816 1.07582 15.816 1.10002C15.816 1.12422 15.8052 1.14402 15.792 1.14402C15.7788 1.14402 15.768 1.16382 15.768 1.18802C15.768 1.21222 15.7572 1.23202 15.744 1.23202C15.7308 1.23202 15.72 1.245 15.72 1.26089C15.72 1.27679 15.6976 1.33217 15.6703 1.38398C15.643 1.43585 15.6264 1.49206 15.6335 1.50889C15.6405 1.52572 15.637 1.53716 15.6256 1.53424C15.6142 1.53138 15.6064 1.5354 15.6084 1.54321C15.6104 1.55102 15.5914 1.57824 15.5663 1.60371C15.5412 1.62917 15.5298 1.65002 15.5411 1.65002C15.5524 1.65002 15.5487 1.6619 15.5328 1.67642C15.517 1.69094 15.504 1.72064 15.504 1.74242C15.504 1.7642 15.4932 1.78202 15.48 1.78202C15.4668 1.78202 15.456 1.80182 15.456 1.82602C15.456 1.85022 15.4452 1.87002 15.432 1.87002C15.4188 1.87002 15.408 1.88982 15.408 1.91402C15.408 1.93822 15.3972 1.95802 15.384 1.95802C15.3708 1.95802 15.36 1.98772 15.36 2.02402C15.36 2.06032 15.3492 2.09002 15.336 2.09002C15.3228 2.09002 15.312 2.10982 15.312 2.13402C15.312 2.15822 15.3006 2.17802 15.2866 2.17802C15.2726 2.17802 15.2673 2.18709 15.2748 2.19826C15.2823 2.20937 15.2749 2.23164 15.2583 2.24776C15.2096 2.29484 15.072 2.55444 15.072 2.5991C15.072 2.62159 15.0612 2.64002 15.048 2.64002C15.0348 2.64002 15.024 2.65982 15.024 2.68402C15.024 2.70822 15.0132 2.72802 15 2.72802C14.9868 2.72802 14.976 2.74782 14.976 2.77202C14.976 2.79622 14.9652 2.81602 14.952 2.81602C14.9388 2.81602 14.928 2.83582 14.928 2.86002C14.928 2.88422 14.9172 2.90402 14.904 2.90402C14.8908 2.90402 14.88 2.92382 14.88 2.94802C14.88 2.97222 14.8692 2.99202 14.856 2.99202C14.8428 2.99202 14.832 3.00698 14.832 3.0253C14.832 3.04361 14.8222 3.07579 14.8101 3.0968C14.7371 3.22429 14.604 3.49049 14.604 3.50902C14.604 3.52112 14.5911 3.54356 14.5753 3.55891C14.5596 3.5742 14.5275 3.64597 14.504 3.71841C14.4805 3.79079 14.453 3.85002 14.4427 3.85002C14.4324 3.85002 14.424 3.86982 14.424 3.89402C14.424 3.91822 14.4126 3.93802 14.3986 3.93802C14.3846 3.93802 14.3793 3.9471 14.3868 3.95826C14.3943 3.96937 14.3842 3.99341 14.3643 4.01167C14.3443 4.02993 14.328 4.06045 14.328 4.07943C14.328 4.09846 14.3172 4.11402 14.304 4.11402C14.2908 4.11402 14.28 4.13382 14.28 4.15802C14.28 4.18222 14.2692 4.20202 14.256 4.20202C14.2428 4.20202 14.232 4.22677 14.232 4.25702C14.232 4.28727 14.2212 4.31202 14.208 4.31202C14.1948 4.31202 14.184 4.33182 14.184 4.35602C14.184 4.38022 14.1732 4.40002 14.16 4.40002C14.1455 4.40002 14.136 4.49534 14.136 4.64202C14.136 4.78871 14.1455 4.88402 14.16 4.88402C14.1732 4.88402 14.184 4.90657 14.184 4.93418C14.184 4.96174 14.2056 4.99859 14.232 5.01602C14.2584 5.03346 14.28 5.06085 14.28 5.07685C14.28 5.11387 14.3683 5.19367 14.454 5.23426C14.4903 5.25142 14.52 5.2737 14.52 5.28376C14.52 5.29377 14.547 5.30202 14.58 5.30202C14.613 5.30202 14.64 5.31192 14.64 5.32402C14.64 5.33739 14.7475 5.34602 14.9146 5.34602C15.0718 5.34602 15.1955 5.33662 15.204 5.32402C15.2122 5.31192 15.2398 5.30202 15.2655 5.30202C15.2911 5.30202 15.312 5.29212 15.312 5.28002C15.312 5.26792 15.3282 5.25802 15.348 5.25802C15.3678 5.25802 15.384 5.24977 15.384 5.23976C15.384 5.2297 15.4113 5.20808 15.4447 5.19169C15.478 5.17536 15.5114 5.13977 15.5188 5.1126C15.5263 5.08549 15.553 5.04616 15.5782 5.02521C15.6034 5.00431 15.624 4.97389 15.624 4.95761C15.624 4.94133 15.6348 4.92802 15.648 4.92802C15.6612 4.92802 15.672 4.90822 15.672 4.88402C15.672 4.85982 15.6828 4.84002 15.696 4.84002C15.7092 4.84002 15.72 4.82022 15.72 4.79602C15.72 4.77182 15.7308 4.75202 15.744 4.75202C15.7572 4.75202 15.768 4.73283 15.768 4.70934C15.768 4.68586 15.7788 4.6605 15.792 4.65302C15.8052 4.64554 15.816 4.61524 15.816 4.5857C15.816 4.55617 15.8268 4.53202 15.84 4.53202C15.8532 4.53202 15.864 4.51222 15.864 4.48802C15.864 4.46382 15.8748 4.44402 15.888 4.44402C15.9012 4.44402 15.912 4.42422 15.912 4.40002C15.912 4.37582 15.9228 4.35602 15.936 4.35602C15.9492 4.35602 15.96 4.33622 15.96 4.31202C15.96 4.28782 15.9708 4.26802 15.984 4.26802C15.9972 4.26802 16.008 4.24822 16.008 4.22402C16.008 4.19982 16.0188 4.18002 16.032 4.18002C16.0452 4.18002 16.056 4.16022 16.056 4.13602C16.056 4.11182 16.0668 4.09202 16.08 4.09202C16.0932 4.09202 16.104 4.06727 16.104 4.03702C16.104 4.00677 16.1148 3.98202 16.128 3.98202C16.1412 3.98202 16.152 3.96222 16.152 3.93802C16.152 3.91382 16.1628 3.89402 16.176 3.89402C16.1892 3.89402 16.2 3.87422 16.2 3.85002C16.2 3.82582 16.2108 3.80602 16.224 3.80602C16.2372 3.80602 16.248 3.78622 16.248 3.76202C16.248 3.73782 16.2588 3.71802 16.272 3.71802C16.2852 3.71802 16.296 3.70504 16.296 3.68914C16.296 3.67325 16.3176 3.61929 16.344 3.56919C16.3704 3.51914 16.392 3.46282 16.392 3.44407C16.392 3.42537 16.4028 3.41002 16.416 3.41002C16.4292 3.41002 16.44 3.39022 16.44 3.36602C16.44 3.34182 16.4508 3.32202 16.464 3.32202C16.4772 3.32202 16.488 3.30723 16.488 3.28919C16.488 3.24332 16.5674 3.08002 16.5897 3.08002C16.5997 3.08002 16.608 3.06082 16.608 3.03734C16.608 3.01385 16.6188 2.9885 16.632 2.98102C16.6452 2.97354 16.656 2.94818 16.656 2.9247C16.656 2.90121 16.6668 2.88202 16.68 2.88202C16.6932 2.88202 16.704 2.85727 16.704 2.82702C16.704 2.79677 16.7148 2.77202 16.728 2.77202C16.7412 2.77202 16.752 2.75222 16.752 2.72802C16.752 2.70382 16.7628 2.68402 16.776 2.68402C16.7892 2.68402 16.8 2.66422 16.8 2.64002C16.8 2.61582 16.8108 2.59602 16.824 2.59602C16.8372 2.59602 16.848 2.57622 16.848 2.55202C16.848 2.52782 16.8588 2.50802 16.872 2.50802C16.8852 2.50802 16.896 2.48822 16.896 2.46402C16.896 2.43982 16.9068 2.42002 16.92 2.42002C16.9332 2.42002 16.944 2.40082 16.944 2.37734C16.944 2.35385 16.9548 2.3285 16.968 2.32102C16.9812 2.31354 16.992 2.28818 16.992 2.2647C16.992 2.24121 17.004 2.22202 17.0186 2.22202C17.0332 2.22202 17.0388 2.20678 17.031 2.18819C17.0229 2.16894 17.0322 2.14898 17.0524 2.14183C17.072 2.13495 17.088 2.11059 17.088 2.08765C17.088 2.06477 17.0988 2.04602 17.112 2.04602C17.1252 2.04602 17.136 2.02622 17.136 2.00202C17.136 1.97782 17.1468 1.95802 17.16 1.95802C17.1732 1.95802 17.184 1.94504 17.184 1.92914C17.184 1.91325 17.2056 1.85929 17.232 1.80919C17.2584 1.75914 17.28 1.70282 17.28 1.68406C17.28 1.66536 17.2908 1.65002 17.304 1.65002C17.3172 1.65002 17.328 1.63022 17.328 1.60602C17.328 1.58182 17.3388 1.56202 17.352 1.56202C17.3652 1.56202 17.376 1.54222 17.376 1.51802C17.376 1.49382 17.3868 1.47402 17.4 1.47402C17.4132 1.47402 17.424 1.46032 17.424 1.44355C17.424 1.42677 17.4402 1.3847 17.4599 1.35005C17.4796 1.3154 17.4958 1.26969 17.4959 1.24852C17.496 1.22734 17.5068 1.21002 17.52 1.21002C17.5332 1.21002 17.544 1.18527 17.544 1.15502C17.544 1.12477 17.5548 1.10002 17.568 1.10002C17.5825 1.10002 17.592 1.00877 17.592 0.870339C17.592 0.740924 17.5815 0.634664 17.568 0.627019C17.5548 0.619539 17.544 0.589234 17.544 0.559699C17.544 0.530164 17.5352 0.506019 17.5245 0.506019C17.5137 0.506019 17.4874 0.472359 17.466 0.431219C17.4446 0.390079 17.3859 0.328204 17.3355 0.293719C17.2852 0.259234 17.2404 0.223594 17.236 0.214519C17.2316 0.205444 17.2026 0.198019 17.1714 0.198019C17.1403 0.198019 17.1082 0.188119 17.1 0.176019C17.0802 0.146649 16.536 0.146649 16.536 0.176019ZM12.174 1.5772C12.2313 1.59089 12.2272 1.62736 12.168 1.63077C12.1416 1.63225 12.1065 1.63478 12.09 1.63627C12.0662 1.63847 12.0588 2.27504 12.054 4.72205L12.0478 7.80507L12.1326 7.81965C12.1792 7.82768 12.211 7.84363 12.2033 7.85512C12.1955 7.86662 12.2014 7.87602 12.2162 7.87602C12.2319 7.87602 12.2371 7.85837 12.2287 7.834C12.217 7.8004 12.2317 7.7867 12.3019 7.76547C12.3501 7.75084 12.4083 7.72274 12.4312 7.70299C12.4541 7.68319 12.4933 7.65113 12.5184 7.63166C12.5917 7.57484 12.648 7.50406 12.648 7.46875C12.648 7.45076 12.6588 7.43602 12.672 7.43602C12.6852 7.43602 12.696 7.41094 12.696 7.38031C12.696 7.34973 12.7095 7.31992 12.726 7.31409C12.7498 7.30573 12.7546 6.78735 12.7493 4.8013C12.7427 2.34852 12.7454 2.18462 12.7927 2.2114C12.8055 2.21866 12.816 2.21569 12.816 2.20486C12.816 2.19397 12.789 2.17378 12.756 2.16003C12.7206 2.14524 12.696 2.11658 12.696 2.09018C12.696 1.95895 12.4242 1.69638 12.2763 1.68489C12.2633 1.68384 12.2488 1.66454 12.244 1.64193C12.2378 1.61229 12.2445 1.6058 12.2677 1.61861C12.294 1.63313 12.2939 1.62956 12.2671 1.59925C12.249 1.57879 12.2112 1.56317 12.1831 1.56455C12.1425 1.56658 12.1407 1.56917 12.174 1.5772ZM18.912 4.64202C18.912 4.65412 18.8688 4.66402 18.816 4.66402C18.7632 4.66402 18.72 4.67392 18.72 4.68602C18.72 4.69812 18.6984 4.70802 18.672 4.70802C18.6456 4.70802 18.624 4.71792 18.624 4.73002C18.624 4.74212 18.6079 4.75202 18.5882 4.75202C18.5685 4.75202 18.5389 4.77182 18.5224 4.79602C18.5059 4.82022 18.4802 4.84002 18.4651 4.84002C18.4501 4.84002 18.3933 4.87962 18.3389 4.92802C18.2845 4.97642 18.2292 5.01602 18.216 5.01602C18.2029 5.01602 18.1536 5.04935 18.1065 5.09011C18.0594 5.13086 17.9923 5.17789 17.9574 5.19461C17.9226 5.21133 17.8654 5.25225 17.8305 5.28552C17.7955 5.3188 17.7571 5.34602 17.7453 5.34602C17.7334 5.34602 17.6779 5.38562 17.6218 5.43402C17.5658 5.48242 17.5137 5.52202 17.5061 5.52202C17.4985 5.52202 17.4508 5.56162 17.4 5.61002C17.3493 5.65842 17.2953 5.69802 17.28 5.69802C17.2648 5.69802 17.2108 5.73762 17.16 5.78602C17.1093 5.83442 17.0547 5.87402 17.0387 5.87402C17.0227 5.87402 16.9922 5.89245 16.9708 5.915C16.9495 5.93755 16.8888 5.98265 16.836 6.01526C16.7414 6.07373 16.6009 6.179 16.4592 6.29752C16.4195 6.3308 16.3776 6.35802 16.3663 6.35802C16.3549 6.35802 16.3078 6.39267 16.2616 6.43502C16.2154 6.47737 16.1677 6.51202 16.1557 6.51202C16.1437 6.51202 16.0893 6.55162 16.0349 6.60002C15.9805 6.64842 15.9278 6.68802 15.9178 6.68802C15.9079 6.68802 15.8539 6.72762 15.7978 6.77602C15.7418 6.82442 15.6873 6.86402 15.6766 6.86402C15.6661 6.86402 15.615 6.89961 15.5632 6.94311C15.5113 6.98667 15.4363 7.0431 15.3965 7.06857C15.3566 7.09409 15.3066 7.13275 15.2852 7.15448C15.2638 7.1762 15.2355 7.19402 15.2221 7.19402C15.2088 7.19402 15.1533 7.23362 15.0989 7.28202C15.0445 7.33042 14.9892 7.37002 14.976 7.37002C14.9628 7.37002 14.952 7.37992 14.952 7.39202C14.952 7.40412 14.9401 7.41402 14.9256 7.41402C14.9112 7.41402 14.869 7.44372 14.832 7.48002C14.795 7.51632 14.7538 7.54602 14.7404 7.54602C14.727 7.54602 14.6751 7.58562 14.6251 7.63402C14.575 7.68242 14.5247 7.72202 14.5132 7.72202C14.5017 7.72202 14.4472 7.76371 14.3922 7.8147C14.3371 7.86568 14.2893 7.90528 14.286 7.9027C14.2647 7.88603 14.2237 7.90875 14.136 7.98602C14.0811 8.03442 14.0277 8.07402 14.0173 8.07402C13.9834 8.07402 13.752 8.29573 13.752 8.32823C13.752 8.34572 13.7412 8.36002 13.728 8.36002C13.7148 8.36002 13.704 8.37982 13.704 8.40402C13.704 8.42822 13.6946 8.44802 13.6831 8.44802C13.6716 8.44802 13.6609 8.56187 13.6593 8.70102C13.6578 8.84292 13.6662 8.95402 13.6786 8.95402C13.6909 8.95402 13.7043 8.98125 13.7084 9.01452C13.713 9.05066 13.7288 9.0726 13.7478 9.06897C13.7653 9.06567 13.7724 9.07354 13.7637 9.08657C13.7428 9.11737 13.9914 9.34887 14.046 9.34953C14.0691 9.3498 14.088 9.3575 14.088 9.36669C14.088 9.37582 14.131 9.39562 14.1837 9.41069C14.2985 9.44352 14.64 9.44754 14.64 9.41602C14.64 9.40392 14.6724 9.39402 14.712 9.39402C14.7516 9.39402 14.784 9.38412 14.784 9.37202C14.784 9.35992 14.7982 9.35002 14.8155 9.35002C14.8328 9.35002 14.8702 9.33022 14.8985 9.30602C14.9268 9.28182 14.9599 9.26202 14.9721 9.26202C14.9843 9.26202 15.0387 9.22242 15.0931 9.17402C15.1476 9.12562 15.2016 9.08602 15.2131 9.08602C15.2247 9.08602 15.2787 9.04642 15.3331 8.99802C15.3876 8.94962 15.4383 8.91002 15.4459 8.91002C15.4536 8.91002 15.5013 8.87042 15.552 8.82202C15.6028 8.77362 15.6591 8.73402 15.6771 8.73402C15.6952 8.73402 15.7501 8.69937 15.7991 8.65702C15.8481 8.61467 15.8976 8.58002 15.9092 8.58002C15.9208 8.58002 15.9747 8.54042 16.0291 8.49202C16.0836 8.44362 16.1376 8.40402 16.1491 8.40402C16.1607 8.40402 16.2147 8.36442 16.2691 8.31602C16.3236 8.26762 16.3743 8.22802 16.3819 8.22802C16.3896 8.22802 16.4398 8.18842 16.4937 8.14002C16.5476 8.09162 16.6018 8.05202 16.6142 8.05202C16.6266 8.05202 16.6698 8.01985 16.7101 7.98052C16.7504 7.9412 16.7913 7.91111 16.801 7.9137C16.8108 7.91628 16.8496 7.89137 16.8874 7.85837C16.9251 7.82531 16.9975 7.77482 17.0483 7.74606C17.0991 7.71735 17.1643 7.67296 17.1933 7.64744C17.2222 7.62192 17.2941 7.56648 17.353 7.52435C17.5261 7.40033 17.5464 7.38454 17.6304 7.30952C17.6744 7.2702 17.7203 7.23802 17.7323 7.23802C17.7444 7.23802 17.7987 7.19842 17.8531 7.15002C17.9076 7.10162 17.9616 7.06202 17.9731 7.06202C17.9847 7.06202 18.0387 7.02242 18.0931 6.97402C18.1476 6.92562 18.2004 6.88602 18.2105 6.88602C18.2321 6.88602 18.429 6.74269 18.5584 6.6328C18.6081 6.59056 18.6582 6.55602 18.6695 6.55602C18.6809 6.55602 18.7347 6.51642 18.7891 6.46802C18.8436 6.41962 18.8997 6.38002 18.9139 6.38002C18.9282 6.38002 18.9813 6.34042 19.032 6.29202C19.0828 6.24362 19.1346 6.20402 19.1472 6.20402C19.1599 6.20402 19.2147 6.16442 19.2691 6.11602C19.3236 6.06762 19.3739 6.02802 19.381 6.02802C19.4216 6.02802 19.704 5.76633 19.704 5.72877C19.704 5.71188 19.7148 5.69802 19.728 5.69802C19.7412 5.69802 19.752 5.66832 19.752 5.63202C19.752 5.59572 19.7628 5.56602 19.776 5.56602C19.7904 5.56602 19.8 5.48171 19.8 5.35702C19.8 5.23234 19.7904 5.14802 19.776 5.14802C19.7628 5.14802 19.752 5.12052 19.752 5.08686C19.752 5.05095 19.7322 5.01267 19.704 4.99402C19.6776 4.97659 19.656 4.94931 19.656 4.93341C19.656 4.89156 19.5109 4.765 19.4211 4.72854C19.3787 4.71132 19.344 4.68982 19.344 4.68063C19.344 4.6715 19.3008 4.66402 19.248 4.66402C19.1952 4.66402 19.152 4.65412 19.152 4.64202C19.152 4.62992 19.098 4.62002 19.032 4.62002C18.966 4.62002 18.912 4.62992 18.912 4.64202ZM4.326 4.91691C4.29186 4.9525 4.28766 4.97202 4.31424 4.97202C4.32426 4.97202 4.34592 4.95222 4.36242 4.92802C4.39668 4.87781 4.37106 4.87 4.326 4.91691ZM23.1006 7.18995C23.035 7.19375 22.9671 7.20761 22.9498 7.22075C22.9325 7.2339 22.8865 7.24385 22.8476 7.24281C22.8087 7.24182 22.7706 7.25023 22.763 7.26151C22.7554 7.27278 22.7066 7.28202 22.6546 7.28202C22.6026 7.28202 22.56 7.29192 22.56 7.30402C22.56 7.31612 22.5175 7.32602 22.4655 7.32602C22.4134 7.32602 22.3642 7.33592 22.356 7.34802C22.3479 7.36012 22.3047 7.37002 22.26 7.37002C22.2154 7.37002 22.1722 7.37992 22.164 7.39202C22.1559 7.40412 22.112 7.41402 22.0666 7.41402C22.0212 7.41402 21.984 7.42392 21.984 7.43602C21.984 7.44812 21.9415 7.45802 21.8895 7.45802C21.8374 7.45802 21.7882 7.46792 21.78 7.48002C21.7719 7.49212 21.728 7.50202 21.6826 7.50202C21.6372 7.50202 21.6 7.51192 21.6 7.52402C21.6 7.53612 21.5568 7.54602 21.504 7.54602C21.4512 7.54602 21.408 7.55592 21.408 7.56802C21.408 7.58012 21.3648 7.59002 21.312 7.59002C21.2592 7.59002 21.216 7.59992 21.216 7.61202C21.216 7.62412 21.1728 7.63402 21.12 7.63402C21.0672 7.63402 21.024 7.64392 21.024 7.65602C21.024 7.66812 20.9808 7.67802 20.928 7.67802C20.8752 7.67802 20.832 7.68792 20.832 7.70002C20.832 7.71212 20.7995 7.72202 20.7597 7.72202C20.7199 7.72202 20.6686 7.73093 20.6457 7.74177C20.6228 7.75266 20.5014 7.779 20.376 7.80034C20.2506 7.82163 20.1085 7.8516 20.0602 7.86689C20.0119 7.88218 19.9668 7.88955 19.96 7.88334C19.9489 7.87311 19.8848 7.88851 19.704 7.94488C19.671 7.95517 19.6089 7.96578 19.566 7.96848C19.5231 7.97117 19.488 7.98118 19.488 7.9907C19.488 8.00021 19.4448 8.00802 19.392 8.00802C19.3392 8.00802 19.296 8.01792 19.296 8.03002C19.296 8.04212 19.2528 8.05202 19.2 8.05202C19.1472 8.05202 19.104 8.06192 19.104 8.07402C19.104 8.08612 19.0608 8.09602 19.008 8.09602C18.9552 8.09602 18.912 8.10592 18.912 8.11802C18.912 8.13012 18.8697 8.14002 18.818 8.14002C18.7663 8.14002 18.7198 8.15146 18.7147 8.16549C18.7096 8.17951 18.6709 8.19007 18.6288 8.18897C18.5866 8.18787 18.552 8.19618 18.552 8.20751C18.552 8.21878 18.5304 8.22802 18.504 8.22802C18.4776 8.22802 18.456 8.23792 18.456 8.25002C18.456 8.26212 18.4393 8.27202 18.4189 8.27202C18.3753 8.27202 18.2603 8.3713 18.2815 8.39071C18.2895 8.39803 18.2826 8.40402 18.2663 8.40402C18.2247 8.40402 18.168 8.46018 18.168 8.50143C18.168 8.52046 18.1572 8.53602 18.144 8.53602C18.1308 8.53602 18.12 8.55582 18.12 8.58002C18.12 8.60422 18.1092 8.62402 18.096 8.62402C18.0828 8.62402 18.072 8.65312 18.072 8.6887C18.072 8.72429 18.0612 8.75954 18.048 8.76702C18.0348 8.7745 18.024 8.82956 18.024 8.88934C18.024 8.94913 18.0348 8.99802 18.048 8.99802C18.0612 8.99802 18.072 9.03762 18.072 9.08602C18.072 9.13442 18.0828 9.17402 18.096 9.17402C18.1092 9.17402 18.12 9.19382 18.12 9.21802C18.12 9.24222 18.1308 9.26202 18.144 9.26202C18.1572 9.26202 18.168 9.2772 18.168 9.29574C18.168 9.48026 18.9417 9.72936 19.0932 9.59362C19.1058 9.58234 19.1538 9.56997 19.2 9.56612C19.2462 9.56221 19.2822 9.54896 19.2799 9.53658C19.2774 9.52349 19.3137 9.5175 19.3671 9.52217C19.4173 9.52657 19.4657 9.51931 19.4746 9.50611C19.4836 9.49286 19.5274 9.48202 19.572 9.48202C19.6167 9.48202 19.6591 9.47317 19.6665 9.46233C19.6737 9.4515 19.7203 9.43747 19.7698 9.43115C19.8195 9.42482 19.9086 9.4081 19.968 9.39402C20.0274 9.37994 20.1166 9.36322 20.1662 9.3569C20.2158 9.35057 20.2623 9.33655 20.2696 9.32571C20.2769 9.31488 20.32 9.30602 20.3655 9.30602C20.4109 9.30602 20.448 9.29612 20.448 9.28402C20.448 9.27192 20.4912 9.26202 20.544 9.26202C20.5968 9.26202 20.64 9.25212 20.64 9.24002C20.64 9.22792 20.6823 9.21802 20.734 9.21802C20.7857 9.21802 20.832 9.20713 20.8368 9.19382C20.8417 9.18051 20.8858 9.16962 20.9348 9.16962C20.9839 9.16962 21.024 9.16071 21.024 9.14982C21.024 9.13893 21.0672 9.13002 21.12 9.13002C21.1728 9.13002 21.216 9.12012 21.216 9.10802C21.216 9.09592 21.2532 9.08602 21.2986 9.08602C21.344 9.08602 21.3879 9.07612 21.396 9.06402C21.4042 9.05192 21.448 9.04202 21.4935 9.04202C21.5389 9.04202 21.576 9.03212 21.576 9.02002C21.576 9.00792 21.6192 8.99802 21.672 8.99802C21.7248 8.99802 21.768 8.98812 21.768 8.97602C21.768 8.96392 21.8166 8.95402 21.876 8.95402C21.9354 8.95402 21.984 8.94412 21.984 8.93202C21.984 8.91992 22.0272 8.91002 22.08 8.91002C22.1328 8.91002 22.176 8.90012 22.176 8.88802C22.176 8.87592 22.2192 8.86602 22.272 8.86602C22.3248 8.86602 22.368 8.85612 22.368 8.84402C22.368 8.83192 22.4112 8.82202 22.464 8.82202C22.5168 8.82202 22.56 8.81212 22.56 8.80002C22.56 8.78792 22.6032 8.77802 22.656 8.77802C22.7088 8.77802 22.752 8.7701 22.752 8.76037C22.752 8.75069 22.8303 8.73182 22.926 8.71846C23.0217 8.70509 23.1432 8.68375 23.196 8.67105C23.2488 8.6584 23.3244 8.64184 23.364 8.63436C23.4036 8.62683 23.4576 8.61253 23.484 8.60257C23.5104 8.59262 23.5671 8.57238 23.61 8.55758C23.6529 8.54279 23.688 8.522 23.688 8.51133C23.688 8.50071 23.7015 8.49202 23.718 8.49202C23.7597 8.49197 23.88 8.39396 23.88 8.36002C23.88 8.34473 23.9043 8.31289 23.934 8.28924C23.9984 8.23803 24.0201 7.5705 23.958 7.55152C23.9415 7.54646 23.928 7.52809 23.928 7.5106C23.928 7.46831 23.7232 7.28202 23.6767 7.28202C23.6565 7.28202 23.64 7.27212 23.64 7.26002C23.64 7.24792 23.6193 7.23802 23.594 7.23802C23.5687 7.23802 23.5444 7.22933 23.54 7.21866C23.5308 7.19639 23.2764 7.17978 23.1006 7.18995ZM6.55639 7.66845C6.57859 7.69188 6.63259 7.72978 6.67639 7.75266C6.77035 7.80177 6.74557 7.77741 6.61201 7.68924C6.55615 7.65239 6.53293 7.6437 6.55639 7.66845ZM12.4851 7.73385C12.4453 7.77515 12.4782 7.77422 12.5386 7.73231C12.5713 7.70959 12.5749 7.7003 12.5506 7.70085C12.5316 7.70134 12.5021 7.71619 12.4851 7.73385ZM15.048 10.362C15.048 10.3741 15.0011 10.384 14.9437 10.384C14.8361 10.384 14.688 10.4367 14.688 10.4749C14.688 10.4869 14.6772 10.4905 14.664 10.483C14.6508 10.4755 14.64 10.4799 14.64 10.4927C14.64 10.5055 14.6284 10.516 14.6143 10.516C14.5837 10.516 14.52 10.5711 14.52 10.5976C14.52 10.6079 14.4984 10.6306 14.472 10.648C14.4456 10.6655 14.424 10.6974 14.424 10.7189C14.424 10.7404 14.4132 10.758 14.4 10.758C14.3868 10.758 14.376 10.7877 14.376 10.824C14.376 10.8603 14.3665 10.89 14.3549 10.89C14.3249 10.89 14.3216 11.2358 14.3515 11.2527C14.365 11.2603 14.376 11.2958 14.376 11.3313C14.376 11.3669 14.3868 11.396 14.4 11.396C14.4132 11.396 14.424 11.4113 14.424 11.43C14.424 11.4487 14.4483 11.4879 14.478 11.517C14.5077 11.5461 14.5442 11.5827 14.5591 11.5985C14.6056 11.6476 14.6875 11.704 14.7123 11.704C14.7253 11.704 14.736 11.7139 14.736 11.726C14.736 11.7381 14.7684 11.748 14.808 11.748C14.8476 11.748 14.88 11.7579 14.88 11.77C14.88 11.7821 14.9172 11.792 14.9626 11.792C15.008 11.792 15.0519 11.8019 15.06 11.814C15.0682 11.8261 15.1174 11.836 15.1695 11.836C15.2215 11.836 15.264 11.8459 15.264 11.858C15.264 11.8701 15.3072 11.88 15.36 11.88C15.4128 11.88 15.456 11.8899 15.456 11.902C15.456 11.9141 15.4932 11.924 15.5386 11.924C15.584 11.924 15.6279 11.9339 15.636 11.946C15.6442 11.9581 15.688 11.968 15.7335 11.968C15.7789 11.968 15.816 11.9779 15.816 11.99C15.816 12.0021 15.8592 12.012 15.912 12.012C15.9648 12.012 16.008 12.0219 16.008 12.034C16.008 12.0461 16.0512 12.056 16.104 12.056C16.1568 12.056 16.2 12.0659 16.2 12.078C16.2 12.0901 16.2432 12.1 16.296 12.1C16.3488 12.1 16.392 12.1099 16.392 12.122C16.392 12.1341 16.4352 12.144 16.488 12.144C16.5408 12.144 16.584 12.1529 16.584 12.1637C16.584 12.1745 16.6245 12.1886 16.674 12.1949C16.7235 12.2013 16.8099 12.2172 16.866 12.2302C17.1331 12.2925 17.1777 12.302 17.256 12.3132C17.3022 12.3198 17.3508 12.3331 17.364 12.3427C17.3772 12.3524 17.4663 12.3673 17.562 12.376C17.6577 12.3846 17.736 12.4003 17.736 12.4109C17.736 12.4214 17.7792 12.43 17.832 12.43C17.8848 12.43 17.928 12.4399 17.928 12.452C17.928 12.4641 17.9712 12.474 18.024 12.474C18.0768 12.474 18.12 12.4839 18.12 12.496C18.12 12.5081 18.1632 12.518 18.216 12.518C18.2688 12.518 18.312 12.5279 18.312 12.54C18.312 12.5521 18.3552 12.562 18.408 12.562C18.4608 12.562 18.504 12.5719 18.504 12.584C18.504 12.5961 18.5479 12.606 18.6015 12.606C18.6603 12.606 18.693 12.6147 18.684 12.628C18.6751 12.6413 18.7078 12.65 18.7666 12.65C18.8202 12.65 18.864 12.6599 18.864 12.672C18.864 12.6841 18.9072 12.694 18.96 12.694C19.0128 12.694 19.056 12.7039 19.056 12.716C19.056 12.7281 19.0992 12.738 19.152 12.738C19.2048 12.738 19.248 12.7479 19.248 12.76C19.248 12.7721 19.2912 12.782 19.344 12.782C19.3968 12.782 19.44 12.7909 19.44 12.8018C19.44 12.8127 19.4802 12.8216 19.5292 12.8216C19.5783 12.8216 19.6224 12.8325 19.6272 12.8458C19.6321 12.8591 19.6777 12.87 19.7286 12.87C19.7795 12.87 19.8279 12.8799 19.836 12.892C19.8442 12.9041 19.8874 12.914 19.932 12.914C19.9767 12.914 20.0199 12.9239 20.028 12.936C20.0362 12.9481 20.0854 12.958 20.1375 12.958C20.1895 12.958 20.232 12.9679 20.232 12.98C20.232 12.9921 20.2752 13.002 20.328 13.002C20.3808 13.002 20.424 13.0119 20.424 13.024C20.424 13.0361 20.4612 13.046 20.5066 13.046C20.552 13.046 20.5959 13.0559 20.604 13.068C20.6122 13.0801 20.71 13.09 20.8215 13.09C20.9405 13.09 21.024 13.0809 21.024 13.068C21.024 13.0559 21.0564 13.046 21.096 13.046C21.1356 13.046 21.168 13.0361 21.168 13.024C21.168 13.0119 21.1896 13.002 21.216 13.002C21.2424 13.002 21.264 12.9921 21.264 12.98C21.264 12.9679 21.2789 12.958 21.2971 12.958C21.346 12.958 21.5051 12.7826 21.5206 12.7115C21.528 12.6777 21.5435 12.65 21.555 12.65C21.5666 12.65 21.576 12.6203 21.576 12.584C21.576 12.5477 21.5868 12.518 21.6 12.518C21.6137 12.518 21.624 12.4525 21.624 12.3653C21.624 12.2814 21.6132 12.2065 21.6 12.199C21.5868 12.1915 21.576 12.1563 21.576 12.1207C21.576 12.0851 21.5652 12.056 21.552 12.056C21.5388 12.056 21.528 12.0369 21.528 12.0135C21.528 11.9613 21.3264 11.7701 21.228 11.7289C21.1884 11.7124 21.1372 11.6902 21.1143 11.6794C21.0914 11.6688 21.0509 11.66 21.0243 11.66C20.9977 11.66 20.976 11.6501 20.976 11.638C20.976 11.6259 20.9328 11.616 20.88 11.616C20.8272 11.616 20.784 11.6061 20.784 11.594C20.784 11.5819 20.7415 11.572 20.6895 11.572C20.6374 11.572 20.589 11.5634 20.5819 11.5528C20.5747 11.5422 20.5418 11.5335 20.5087 11.5335C20.4756 11.5335 20.4162 11.5213 20.3767 11.5062C20.3372 11.4913 20.2885 11.4848 20.2684 11.4918C20.2484 11.4989 20.232 11.4951 20.232 11.4833C20.232 11.4716 20.1888 11.462 20.136 11.462C20.0832 11.462 20.04 11.4521 20.04 11.44C20.04 11.4279 19.9968 11.418 19.944 11.418C19.8912 11.418 19.848 11.4081 19.848 11.396C19.848 11.3839 19.8048 11.374 19.752 11.374C19.6992 11.374 19.656 11.3641 19.656 11.352C19.656 11.3399 19.6128 11.33 19.56 11.33C19.5072 11.33 19.464 11.3201 19.464 11.308C19.464 11.2959 19.4215 11.286 19.3695 11.286C19.3174 11.286 19.2682 11.2761 19.26 11.264C19.2519 11.2519 19.2087 11.242 19.164 11.242C19.1194 11.242 19.0762 11.2321 19.068 11.22C19.0599 11.2079 19.0106 11.198 18.9586 11.198C18.9066 11.198 18.864 11.1881 18.864 11.176C18.864 11.1639 18.8208 11.154 18.768 11.154C18.7152 11.154 18.672 11.1441 18.672 11.132C18.672 11.1199 18.6349 11.11 18.5895 11.11C18.544 11.11 18.5002 11.1001 18.492 11.088C18.4839 11.0759 18.44 11.066 18.3946 11.066C18.3492 11.066 18.312 11.0561 18.312 11.044C18.312 11.0319 18.2688 11.022 18.216 11.022C18.1632 11.022 18.12 11.0121 18.12 11C18.12 10.9879 18.0775 10.978 18.0255 10.978C17.9734 10.978 17.9246 10.9688 17.917 10.9575C17.9094 10.9462 17.8699 10.9379 17.8293 10.9389C17.7887 10.94 17.7481 10.93 17.7392 10.9168C17.7303 10.9035 17.686 10.8937 17.6407 10.8948C17.5956 10.896 17.5544 10.8855 17.5493 10.8715C17.5442 10.8575 17.4977 10.846 17.446 10.846C17.3943 10.846 17.352 10.8372 17.352 10.8263C17.352 10.8155 17.3088 10.8006 17.256 10.7933C17.2032 10.786 17.1168 10.774 17.0638 10.7667C17.011 10.7594 16.9617 10.7445 16.9545 10.7337C16.9471 10.7229 16.8986 10.714 16.8466 10.714C16.7946 10.714 16.752 10.7052 16.752 10.6943C16.752 10.6835 16.7115 10.6694 16.662 10.6629C16.4827 10.6396 16.4117 10.6262 16.3842 10.6103C16.3687 10.6014 16.329 10.591 16.296 10.5872C16.263 10.5835 16.173 10.5659 16.0961 10.5482C16.0191 10.5305 15.9246 10.516 15.8861 10.516C15.8475 10.516 15.816 10.5061 15.816 10.494C15.816 10.4819 15.7728 10.472 15.72 10.472C15.6672 10.472 15.624 10.4621 15.624 10.45C15.624 10.4379 15.5808 10.428 15.528 10.428C15.4752 10.428 15.432 10.4181 15.432 10.406C15.432 10.3939 15.3841 10.384 15.3255 10.384C15.2668 10.384 15.2122 10.3741 15.204 10.362C15.1959 10.3499 15.1574 10.34 15.1186 10.34C15.0798 10.34 15.048 10.3499 15.048 10.362ZM13.44 12.76C13.44 12.7721 13.4076 12.782 13.368 12.782C13.3284 12.782 13.296 12.7919 13.296 12.804C13.296 12.8161 13.2744 12.826 13.248 12.826C13.2216 12.826 13.2 12.8359 13.2 12.848C13.2 12.8601 13.1827 12.87 13.1616 12.87C13.1163 12.87 12.912 13.0619 12.912 13.1045C12.912 13.1208 12.9012 13.134 12.888 13.134C12.8748 13.134 12.864 13.1538 12.864 13.178C12.864 13.2022 12.8532 13.222 12.84 13.222C12.8254 13.222 12.816 13.321 12.816 13.475C12.816 13.629 12.8254 13.728 12.84 13.728C12.8532 13.728 12.864 13.7478 12.864 13.772C12.864 13.7962 12.8748 13.816 12.888 13.816C12.9012 13.816 12.912 13.8352 12.912 13.8587C12.912 13.8822 12.9228 13.9075 12.936 13.915C12.9492 13.9225 12.96 13.9479 12.96 13.9713C12.96 13.9948 12.9708 14.014 12.984 14.014C12.9972 14.014 13.008 14.0338 13.008 14.058C13.008 14.0822 13.0188 14.102 13.032 14.102C13.0452 14.102 13.056 14.1218 13.056 14.146C13.056 14.1702 13.0668 14.19 13.08 14.19C13.0932 14.19 13.104 14.2098 13.104 14.234C13.104 14.2582 13.1148 14.278 13.128 14.278C13.1412 14.278 13.152 14.2978 13.152 14.322C13.152 14.3462 13.1628 14.366 13.176 14.366C13.1892 14.366 13.2 14.3858 13.2 14.41C13.2 14.4342 13.2108 14.454 13.224 14.454C13.2372 14.454 13.248 14.4738 13.248 14.498C13.248 14.5222 13.2588 14.542 13.272 14.542C13.2852 14.542 13.296 14.5618 13.296 14.586C13.296 14.6102 13.3068 14.63 13.32 14.63C13.3332 14.63 13.344 14.6498 13.344 14.674C13.344 14.6982 13.3548 14.718 13.368 14.718C13.3812 14.718 13.392 14.7378 13.392 14.762C13.392 14.7862 13.4028 14.806 13.416 14.806C13.4292 14.806 13.44 14.8258 13.44 14.85C13.44 14.8742 13.4508 14.894 13.464 14.894C13.4772 14.894 13.488 14.9132 13.488 14.9367C13.488 14.9602 13.499 14.9857 13.5124 14.9932C13.5258 15.0008 13.5311 15.0155 13.5242 15.0257C13.5172 15.036 13.5283 15.0598 13.5487 15.0784C13.569 15.0971 13.5829 15.1153 13.5793 15.1188C13.5642 15.1336 13.6839 15.3564 13.7017 15.3463C13.7124 15.3402 13.7184 15.3597 13.7148 15.3896C13.7112 15.4195 13.7181 15.444 13.7301 15.444C13.7422 15.444 13.752 15.4638 13.752 15.488C13.752 15.5122 13.7628 15.532 13.776 15.532C13.7892 15.532 13.8 15.5518 13.8 15.576C13.8 15.6002 13.8108 15.62 13.824 15.62C13.8372 15.62 13.848 15.6398 13.848 15.664C13.848 15.6882 13.8588 15.708 13.872 15.708C13.8852 15.708 13.896 15.7278 13.896 15.752C13.896 15.7762 13.9068 15.796 13.92 15.796C13.9332 15.796 13.944 15.8158 13.944 15.84C13.944 15.8642 13.9548 15.884 13.968 15.884C13.9812 15.884 13.992 15.9038 13.992 15.928C13.992 15.9522 14.0028 15.972 14.016 15.972C14.0292 15.972 14.04 15.9869 14.04 16.005C14.04 16.0232 14.0508 16.038 14.064 16.038C14.0772 16.038 14.088 16.0578 14.088 16.082C14.088 16.1062 14.0988 16.126 14.112 16.126C14.1252 16.126 14.136 16.1455 14.136 16.1694C14.136 16.1932 14.1576 16.248 14.184 16.291C14.2104 16.3341 14.232 16.3839 14.232 16.4017C14.232 16.4194 14.2428 16.434 14.256 16.434C14.2692 16.434 14.28 16.4538 14.28 16.478C14.28 16.5022 14.2908 16.522 14.304 16.522C14.3172 16.522 14.328 16.5418 14.328 16.566C14.328 16.5902 14.3388 16.61 14.352 16.61C14.3652 16.61 14.376 16.6298 14.376 16.654C14.376 16.6782 14.3868 16.698 14.4 16.698C14.4132 16.698 14.424 16.7178 14.424 16.742C14.424 16.7662 14.4348 16.786 14.448 16.786C14.4612 16.786 14.472 16.8048 14.472 16.8277C14.472 16.8506 14.4889 16.8752 14.5095 16.8825C14.5302 16.8898 14.5401 16.9061 14.5315 16.9188C14.5229 16.9316 14.529 16.9564 14.5449 16.974C14.5608 16.9916 14.5645 17.0062 14.553 17.0064C14.5414 17.0065 14.5428 17.0139 14.556 17.0229C14.5913 17.0466 14.64 17.1324 14.64 17.1707C14.64 17.1891 14.6508 17.204 14.664 17.204C14.6772 17.204 14.688 17.2238 14.688 17.248C14.688 17.2722 14.6988 17.292 14.712 17.292C14.7252 17.292 14.736 17.3118 14.736 17.336C14.736 17.3602 14.7468 17.38 14.76 17.38C14.7732 17.38 14.784 17.395 14.784 17.4133C14.784 17.4316 14.7937 17.4638 14.8055 17.4848C14.8173 17.5058 14.8632 17.5923 14.9074 17.677C14.9516 17.7617 14.9959 17.8343 15.0059 17.8383C15.0159 17.8424 15.024 17.8647 15.024 17.8878C15.024 17.911 15.0348 17.93 15.048 17.93C15.0612 17.93 15.072 17.9498 15.072 17.974C15.072 17.9982 15.0828 18.018 15.096 18.018C15.1092 18.018 15.12 18.0378 15.12 18.062C15.12 18.0862 15.1308 18.106 15.144 18.106C15.1572 18.106 15.168 18.1258 15.168 18.15C15.168 18.1742 15.1788 18.194 15.192 18.194C15.2052 18.194 15.216 18.2138 15.216 18.238C15.216 18.2622 15.2268 18.282 15.24 18.282C15.2532 18.282 15.264 18.3018 15.264 18.326C15.264 18.3502 15.2748 18.37 15.288 18.37C15.3012 18.37 15.312 18.3851 15.312 18.4035C15.312 18.4408 15.5607 18.678 15.5998 18.678C15.6135 18.678 15.6434 18.6867 15.6663 18.6973C15.9469 18.8272 16.2993 18.7688 16.53 18.5542C16.5993 18.4897 16.656 18.4219 16.656 18.4035C16.656 18.3851 16.6668 18.37 16.68 18.37C16.6932 18.37 16.704 18.3502 16.704 18.326C16.704 18.3018 16.7148 18.282 16.728 18.282C16.7426 18.282 16.752 18.183 16.752 18.029C16.752 17.875 16.7426 17.776 16.728 17.776C16.7148 17.776 16.704 17.7562 16.704 17.732C16.704 17.7078 16.6932 17.688 16.68 17.688C16.6668 17.688 16.656 17.6682 16.656 17.644C16.656 17.6198 16.6452 17.6 16.632 17.6C16.6188 17.6 16.608 17.5851 16.608 17.5667C16.608 17.5484 16.5985 17.5163 16.5868 17.4952C16.5751 17.4742 16.5543 17.4323 16.5405 17.402C16.4319 17.1641 16.3787 17.06 16.3627 17.0537C16.3524 17.0496 16.344 17.0274 16.344 17.0042C16.344 16.981 16.3332 16.962 16.32 16.962C16.3068 16.962 16.296 16.9422 16.296 16.918C16.296 16.8938 16.2852 16.874 16.272 16.874C16.2588 16.874 16.248 16.8542 16.248 16.83C16.248 16.8058 16.2372 16.786 16.224 16.786C16.2108 16.786 16.2 16.7662 16.2 16.742C16.2 16.7178 16.1892 16.698 16.176 16.698C16.1628 16.698 16.152 16.6782 16.152 16.654C16.152 16.6298 16.1412 16.61 16.128 16.61C16.1148 16.61 16.104 16.5902 16.104 16.566C16.104 16.5418 16.0932 16.522 16.08 16.522C16.0668 16.522 16.056 16.5022 16.056 16.478C16.056 16.4538 16.0452 16.434 16.032 16.434C16.0188 16.434 16.008 16.4148 16.008 16.3913C16.008 16.3679 15.9972 16.3425 15.984 16.335C15.9708 16.3275 15.96 16.3022 15.96 16.2787C15.96 16.2552 15.9492 16.236 15.936 16.236C15.9228 16.236 15.912 16.2162 15.912 16.192C15.912 16.1678 15.9012 16.148 15.888 16.148C15.8748 16.148 15.864 16.1282 15.864 16.104C15.864 16.0798 15.8532 16.06 15.84 16.06C15.8268 16.06 15.816 16.0402 15.816 16.016C15.816 15.9918 15.8052 15.972 15.792 15.972C15.7788 15.972 15.768 15.9522 15.768 15.928C15.768 15.9038 15.7572 15.884 15.744 15.884C15.7308 15.884 15.72 15.8642 15.72 15.84C15.72 15.8158 15.7092 15.796 15.696 15.796C15.6828 15.796 15.672 15.7762 15.672 15.752C15.672 15.7278 15.6612 15.708 15.648 15.708C15.6348 15.708 15.624 15.6882 15.624 15.664C15.624 15.6398 15.6132 15.62 15.6 15.62C15.5868 15.62 15.576 15.6002 15.576 15.576C15.576 15.5518 15.5652 15.532 15.552 15.532C15.5388 15.532 15.528 15.516 15.528 15.4964C15.528 15.4648 15.3939 15.1897 15.2628 14.9524C15.2371 14.9059 15.216 14.8539 15.216 14.8369C15.216 14.8199 15.2052 14.806 15.192 14.806C15.1788 14.806 15.168 14.7862 15.168 14.762C15.168 14.7378 15.1572 14.718 15.144 14.718C15.1308 14.718 15.12 14.6982 15.12 14.674C15.12 14.6498 15.1092 14.63 15.096 14.63C15.0828 14.63 15.072 14.6102 15.072 14.586C15.072 14.5618 15.0612 14.542 15.048 14.542C15.0348 14.542 15.024 14.5222 15.024 14.498C15.024 14.4738 15.0159 14.454 15.006 14.4539C14.9845 14.4536 14.928 14.3471 14.928 14.3066C14.928 14.2909 14.9172 14.278 14.904 14.278C14.8908 14.278 14.88 14.2632 14.88 14.245C14.88 14.2269 14.8692 14.212 14.856 14.212C14.8428 14.212 14.832 14.1922 14.832 14.168C14.832 14.1438 14.8212 14.124 14.808 14.124C14.7948 14.124 14.784 14.0999 14.784 14.0703C14.784 14.0408 14.7732 14.0105 14.76 14.003C14.7468 13.9955 14.736 13.9702 14.736 13.9467C14.736 13.9232 14.7252 13.904 14.712 13.904C14.6988 13.904 14.688 13.8842 14.688 13.86C14.688 13.8358 14.6799 13.816 14.67 13.8159C14.6485 13.8156 14.592 13.7091 14.592 13.6686C14.592 13.6529 14.5812 13.64 14.568 13.64C14.5548 13.64 14.544 13.6202 14.544 13.596C14.544 13.5718 14.5344 13.552 14.5226 13.552C14.5108 13.552 14.494 13.5248 14.4853 13.4915C14.4621 13.4036 14.4151 13.31 14.3941 13.31C14.3842 13.31 14.376 13.2902 14.376 13.266C14.376 13.2418 14.3652 13.222 14.352 13.222C14.3388 13.222 14.328 13.2022 14.328 13.178C14.328 13.1538 14.3172 13.134 14.304 13.134C14.2908 13.134 14.28 13.1189 14.28 13.1004C14.28 13.0352 14.0149 12.826 13.9323 12.826C13.9123 12.826 13.896 12.8161 13.896 12.804C13.896 12.7919 13.8636 12.782 13.824 12.782C13.7844 12.782 13.752 12.7721 13.752 12.76C13.752 12.7476 13.684 12.738 13.596 12.738C13.508 12.738 13.44 12.7476 13.44 12.76ZM17.376 13.662C17.376 13.6741 17.3597 13.684 17.3397 13.684C17.2568 13.684 16.944 13.9386 16.944 14.006C16.944 14.0225 16.9332 14.036 16.92 14.036C16.9068 14.036 16.896 14.0756 16.896 14.124C16.896 14.1724 16.8852 14.212 16.872 14.212C16.8585 14.212 16.848 14.2743 16.848 14.355C16.848 14.4357 16.8585 14.498 16.872 14.498C16.8852 14.498 16.896 14.5218 16.896 14.5509C16.896 14.6599 17.1687 15.004 17.2551 15.004C17.266 15.004 17.3096 15.0337 17.352 15.07C17.3944 15.1063 17.4449 15.136 17.4643 15.136C17.4836 15.136 17.5156 15.1509 17.5354 15.169C17.5552 15.1872 17.5628 15.202 17.5522 15.202C17.5416 15.202 17.5749 15.2282 17.6263 15.2602C17.6778 15.2923 17.752 15.3467 17.7915 15.3812C17.8309 15.4158 17.8734 15.444 17.886 15.444C17.8985 15.444 17.939 15.4737 17.976 15.51C18.013 15.5463 18.0555 15.576 18.0705 15.576C18.0854 15.576 18.1354 15.6107 18.1816 15.653C18.2278 15.6954 18.2747 15.73 18.2858 15.73C18.2969 15.73 18.3472 15.7647 18.3977 15.807C18.4482 15.8494 18.5011 15.884 18.5154 15.884C18.5297 15.884 18.5573 15.9046 18.5767 15.9299C18.5961 15.9551 18.6426 15.9904 18.6799 16.0083C18.7173 16.0263 18.7809 16.07 18.8215 16.1055C18.862 16.141 18.9054 16.17 18.918 16.17C18.9305 16.17 18.971 16.1997 19.008 16.236C19.045 16.2723 19.0872 16.302 19.1016 16.302C19.1161 16.302 19.1725 16.3416 19.2269 16.39C19.2813 16.4384 19.3364 16.478 19.3493 16.478C19.3622 16.478 19.403 16.5077 19.44 16.544C19.477 16.5803 19.5144 16.61 19.5229 16.61C19.5316 16.61 19.5732 16.6397 19.6153 16.6759C19.6575 16.7122 19.7001 16.7419 19.71 16.7419C19.7199 16.742 19.768 16.7767 19.8169 16.819C19.866 16.8614 19.9129 16.896 19.9213 16.896C19.9348 16.896 19.9744 16.9232 20.081 17.0056C20.097 17.018 20.1213 17.028 20.135 17.028C20.1487 17.028 20.2045 17.0676 20.2589 17.116C20.3133 17.1644 20.3684 17.204 20.3813 17.204C20.3942 17.204 20.435 17.2337 20.472 17.27C20.509 17.3063 20.5506 17.336 20.5643 17.336C20.578 17.336 20.6052 17.3569 20.6247 17.3824C20.6442 17.4079 20.6718 17.4222 20.6861 17.4141C20.7004 17.406 20.712 17.4148 20.712 17.4337C20.712 17.4526 20.7282 17.468 20.748 17.468C20.7678 17.468 20.784 17.4779 20.784 17.49C20.784 17.5021 20.8056 17.512 20.832 17.512C20.8584 17.512 20.88 17.5203 20.88 17.5305C20.88 17.5606 20.9961 17.6 21.0852 17.6C21.1307 17.6 21.168 17.611 21.168 17.6243C21.168 17.6402 21.2012 17.644 21.264 17.6353C21.3168 17.628 21.4033 17.616 21.4562 17.6087C21.5091 17.6014 21.5583 17.5865 21.5656 17.5757C21.5729 17.5649 21.5952 17.556 21.6151 17.556C21.6627 17.556 21.96 17.2817 21.96 17.2379C21.96 17.2193 21.9696 17.204 21.9814 17.204C22.0073 17.204 22.0314 17.0901 22.0478 16.8905C22.0559 16.7918 22.0513 16.742 22.034 16.742C22.0197 16.742 22.008 16.7123 22.008 16.676C22.008 16.6397 21.9972 16.61 21.984 16.61C21.9708 16.61 21.96 16.5902 21.96 16.566C21.96 16.5418 21.9492 16.522 21.936 16.522C21.9228 16.522 21.912 16.5064 21.912 16.4873C21.912 16.4523 21.7329 16.28 21.6966 16.28C21.6859 16.28 21.6448 16.2524 21.6055 16.2187C21.5661 16.1849 21.4948 16.133 21.4471 16.1032C21.3994 16.0734 21.3603 16.0416 21.3602 16.0325C21.3601 16.0234 21.3438 16.016 21.324 16.016C21.3042 16.016 21.288 16.0061 21.288 15.994C21.288 15.9819 21.2771 15.972 21.2638 15.972C21.2505 15.972 21.2057 15.9423 21.1642 15.906C21.1228 15.8697 21.0786 15.84 21.0661 15.84C21.0535 15.84 21.013 15.8103 20.976 15.774C20.939 15.7377 20.8915 15.708 20.8704 15.708C20.8493 15.708 20.832 15.6981 20.832 15.686C20.832 15.6739 20.814 15.664 20.792 15.664C20.77 15.664 20.759 15.6576 20.7676 15.6497C20.7842 15.6345 20.6659 15.5321 20.6316 15.532C20.6205 15.532 20.581 15.5023 20.544 15.466C20.507 15.4297 20.4649 15.4 20.4504 15.4C20.4359 15.4 20.424 15.3891 20.424 15.3757C20.424 15.3617 20.4064 15.3575 20.3827 15.3658C20.3601 15.3738 20.3493 15.3732 20.3588 15.3645C20.3775 15.3474 20.3097 15.268 20.2765 15.268C20.258 15.268 20.1742 15.2085 20.0985 15.1415C20.0814 15.1264 20.0548 15.114 20.0394 15.114C20.0239 15.114 19.981 15.0843 19.944 15.048C19.907 15.0117 19.8649 14.982 19.8504 14.982C19.8359 14.982 19.7796 14.9424 19.7251 14.894C19.6707 14.8456 19.6156 14.806 19.6027 14.806C19.5898 14.806 19.549 14.7763 19.512 14.74C19.475 14.7037 19.4382 14.674 19.4302 14.674C19.4221 14.674 19.3817 14.6443 19.3402 14.608C19.2988 14.5717 19.2553 14.542 19.2436 14.542C19.232 14.542 19.1846 14.5074 19.1384 14.465C19.0922 14.4227 19.0456 14.388 19.0349 14.388C19.0177 14.388 18.9811 14.3635 18.871 14.2784C18.8551 14.2661 18.8324 14.256 18.8206 14.256C18.8088 14.256 18.7653 14.2263 18.7238 14.19C18.6823 14.1537 18.6393 14.124 18.628 14.124C18.6168 14.124 18.5636 14.0844 18.5097 14.036C18.4558 13.9876 18.4054 13.948 18.3977 13.948C18.3899 13.948 18.3497 13.9183 18.3082 13.882C18.2668 13.8457 18.2207 13.816 18.2058 13.816C18.1908 13.816 18.163 13.7962 18.144 13.772C18.125 13.7478 18.0902 13.728 18.0667 13.728C18.0432 13.728 18.024 13.7181 18.024 13.706C18.024 13.6939 18.0024 13.684 17.976 13.684C17.9496 13.684 17.928 13.6741 17.928 13.662C17.928 13.6487 17.82 13.64 17.652 13.64C17.484 13.64 17.376 13.6487 17.376 13.662ZM12.0484 18.7162L12.0482 21.9004L12.1091 21.8402C12.1426 21.8071 12.189 21.78 12.2122 21.78C12.265 21.78 12.3836 21.7306 12.3838 21.7085C12.384 21.6995 12.3993 21.692 12.418 21.692C12.4592 21.692 12.648 21.4999 12.648 21.4579C12.648 21.4415 12.6581 21.428 12.6704 21.428C12.6828 21.428 12.6963 21.4008 12.7004 21.3675C12.7051 21.3301 12.7287 21.2987 12.762 21.2853C12.8248 21.2601 12.8306 21.2399 12.78 21.2221C12.7201 21.201 12.726 16.226 12.786 16.1935C12.8218 16.1741 12.8229 16.1678 12.7932 16.1499C12.774 16.1383 12.7508 16.1332 12.7417 16.1383C12.723 16.1489 12.696 16.0949 12.696 16.0472C12.696 16.03 12.7129 16.016 12.7335 16.016C12.754 16.016 12.7648 16.0071 12.7574 15.9961C12.75 15.9851 12.724 15.9809 12.6997 15.9868C12.6676 15.9945 12.6472 15.9792 12.6256 15.9315C12.5937 15.8608 12.4855 15.7641 12.3708 15.7037C12.3213 15.6777 12.3013 15.6512 12.3045 15.6157C12.3075 15.5808 12.3051 15.5773 12.2964 15.6048C12.2827 15.6485 12.1281 15.6515 12.1364 15.6079C12.1389 15.5952 12.1201 15.5729 12.0948 15.5584C12.0494 15.5324 12.0487 15.5816 12.0484 18.7162ZM11.454 15.7409C11.4199 15.7765 11.4157 15.796 11.4423 15.796C11.4523 15.796 11.4739 15.7762 11.4904 15.752C11.5247 15.7018 11.4991 15.694 11.454 15.7409ZM6.16801 15.994C6.13501 16.0177 6.11983 16.0373 6.13429 16.0375C6.14875 16.0378 6.18013 16.0182 6.20401 15.994C6.25873 15.9386 6.24529 15.9386 6.16801 15.994ZM3.756 17.8097C3.6621 17.8802 3.68742 17.8798 3.792 17.809C3.8367 17.7788 3.8631 17.7544 3.85068 17.7548C3.8382 17.7552 3.7956 17.7799 3.756 17.8097Z" fill="#04A3FC"/>
<path fill-rule="evenodd" clip-rule="evenodd" d="M11.994 1.57659C12.0178 1.58539 12.024 2.23709 12.024 4.73183V7.87602H12.1066C12.152 7.87602 12.1958 7.86612 12.204 7.85402C12.2128 7.84093 12.1843 7.83202 12.1334 7.83202H12.048V4.73002V1.62802H12.1186C12.2236 1.62802 12.2284 1.59166 12.1255 1.57604C12.0188 1.55987 11.9496 1.56015 11.994 1.57659ZM12.2645 1.62774C12.2347 1.64463 12.2358 1.64991 12.2717 1.66256C12.3218 1.68016 12.3545 1.65816 12.3222 1.62857C12.3086 1.61608 12.2857 1.61575 12.2645 1.62774ZM12.384 1.68104C12.384 1.69864 12.4064 1.71959 12.4338 1.72757C12.508 1.74913 12.5138 1.72696 12.4447 1.68549C12.3938 1.65491 12.384 1.6542 12.384 1.68104ZM12.5598 1.80094C12.5839 1.80963 12.6031 1.82129 12.6025 1.8269C12.5989 1.8594 12.6329 1.93602 12.6508 1.93602C12.6625 1.93602 12.672 1.95087 12.672 1.96902C12.672 1.98717 12.6828 2.00202 12.696 2.00202C12.7092 2.00202 12.72 2.0337 12.72 2.07242C12.72 2.12527 12.7268 2.13655 12.7475 2.11763C12.798 2.07132 12.6303 1.78053 12.5548 1.78356C12.523 1.78482 12.5239 1.78796 12.5598 1.80094ZM12.768 4.73002C12.768 6.35928 12.7763 7.23802 12.7916 7.23802C12.8069 7.23802 12.8154 6.3589 12.8158 4.73002C12.8162 3.05895 12.8083 2.22202 12.7922 2.22202C12.7761 2.22202 12.768 3.05928 12.768 4.73002ZM12.72 7.3907C12.72 7.42771 12.7092 7.45802 12.696 7.45802C12.6828 7.45802 12.672 7.47287 12.672 7.49102C12.672 7.50917 12.6612 7.52402 12.648 7.52402C12.6348 7.52402 12.624 7.53392 12.624 7.54602C12.624 7.59211 12.6692 7.56494 12.7176 7.48975C12.7729 7.40395 12.7808 7.35786 12.744 7.33702C12.73 7.3291 12.72 7.35148 12.72 7.3907ZM12.486 7.68737C12.4563 7.70007 12.432 7.718 12.432 7.72724C12.432 7.73648 12.4158 7.74402 12.396 7.74402C12.3762 7.74402 12.36 7.75392 12.36 7.76602C12.36 7.77812 12.3762 7.78802 12.396 7.78802C12.4158 7.78802 12.432 7.77812 12.432 7.76602C12.432 7.75392 12.4482 7.74402 12.468 7.74402C12.4878 7.74402 12.504 7.73483 12.504 7.72361C12.504 7.71239 12.5229 7.6998 12.546 7.69562C12.5691 7.69144 12.5772 7.68264 12.564 7.67615C12.5508 7.66966 12.5157 7.67472 12.486 7.68737ZM12.24 7.81002C12.24 7.82212 12.2616 7.83202 12.288 7.83202C12.3144 7.83202 12.336 7.82212 12.336 7.81002C12.336 7.79792 12.3144 7.78802 12.288 7.78802C12.2616 7.78802 12.24 7.79792 12.24 7.81002ZM12.0239 15.5705C12.0131 17.7251 12.017 21.846 12.0298 21.846C12.0397 21.846 12.0505 20.4303 12.0538 18.7C12.0572 16.9697 12.0519 15.554 12.042 15.554C12.0321 15.554 12.0239 15.5614 12.0239 15.5705ZM12.1908 15.6077C12.2066 15.6251 12.2348 15.634 12.2536 15.6274C12.3006 15.6109 12.2721 15.576 12.2116 15.576C12.1712 15.576 12.1674 15.5818 12.1908 15.6077ZM12.336 15.6507C12.336 15.6675 12.3614 15.6871 12.3926 15.6943C12.4237 15.7014 12.4941 15.752 12.5491 15.8066C12.6511 15.9081 12.672 15.9215 12.672 15.8858C12.672 15.8518 12.4535 15.6629 12.4298 15.6763C12.4176 15.6832 12.4012 15.6733 12.3932 15.6544C12.3754 15.6118 12.336 15.6092 12.336 15.6507ZM12.72 16.06C12.72 16.0842 12.7308 16.104 12.744 16.104C12.7572 16.104 12.768 16.0842 12.768 16.06C12.768 16.0358 12.7572 16.016 12.744 16.016C12.7308 16.016 12.72 16.0358 12.72 16.06ZM12.768 18.733C12.768 20.3686 12.7762 21.23 12.7918 21.23C12.8074 21.23 12.8156 20.3686 12.8156 18.733C12.8156 17.0975 12.8074 16.236 12.7918 16.236C12.7762 16.236 12.768 17.0975 12.768 18.733ZM12.72 21.362C12.72 21.3862 12.7308 21.406 12.744 21.406C12.7572 21.406 12.768 21.3862 12.768 21.362C12.768 21.3378 12.7572 21.318 12.744 21.318C12.7308 21.318 12.72 21.3378 12.72 21.362ZM12.5446 21.6264C12.4944 21.6746 12.4431 21.714 12.4306 21.714C12.4182 21.714 12.408 21.7239 12.408 21.736C12.408 21.7808 12.4601 21.7554 12.5647 21.6596C12.6237 21.6054 12.672 21.5559 12.672 21.5496C12.672 21.5198 12.6283 21.5462 12.5446 21.6264ZM12.18 21.824C12.1716 21.8365 12.1918 21.846 12.2266 21.846C12.2603 21.846 12.288 21.8361 12.288 21.824C12.288 21.8119 12.2671 21.802 12.2414 21.802C12.2158 21.802 12.1882 21.8119 12.18 21.824Z" fill="#0CA4FC"/>
<path fill-rule="evenodd" clip-rule="evenodd" d="M12.0117 4.73004C12.0117 6.46639 12.0145 7.17671 12.018 6.30854C12.0215 5.44036 12.0215 4.01971 12.018 3.15154C12.0145 2.28336 12.0117 2.99369 12.0117 4.73004ZM12.0117 18.722C12.0117 20.4342 12.0145 21.1346 12.018 20.2785C12.0215 19.4225 12.0215 18.0216 12.018 17.1655C12.0145 16.3095 12.0117 17.0099 12.0117 18.722ZM9.39159 17.3305C9.38337 17.3517 9.37209 17.3789 9.36657 17.391C9.36099 17.4031 9.37347 17.3938 9.39423 17.3704C9.43197 17.3277 9.44337 17.292 9.41925 17.292C9.41229 17.292 9.39981 17.3094 9.39159 17.3305ZM4.12239 17.5236C4.07307 17.5657 4.04127 17.6 4.05165 17.6C4.06209 17.6 4.10727 17.5654 4.15203 17.523C4.25649 17.4242 4.23861 17.4246 4.12239 17.5236Z" fill="#0CA4FC"/>
<path fill-rule="evenodd" clip-rule="evenodd" d="M12.3236 1.65107C12.3259 1.67934 12.3404 1.7064 12.3559 1.71108C12.3934 1.72257 12.3915 1.68979 12.3518 1.64002C12.3215 1.60207 12.3197 1.60273 12.3236 1.65107ZM12.464 1.76987C12.5015 1.79726 12.5527 1.8483 12.5779 1.88334C12.6059 1.92228 12.6238 1.93366 12.6238 1.91265C12.6239 1.89379 12.6024 1.85705 12.576 1.83109C12.5496 1.80513 12.528 1.77471 12.528 1.76349C12.528 1.75233 12.4983 1.73797 12.462 1.73165L12.396 1.7201L12.464 1.76987ZM12.6508 1.95913C12.6493 1.97788 12.6579 2.00263 12.67 2.01413C12.6821 2.02562 12.6956 2.05901 12.7 2.08832C12.708 2.14145 12.768 2.18226 12.768 2.13458C12.768 2.12072 12.7572 2.11555 12.744 2.12303C12.73 2.13095 12.72 2.10856 12.72 2.06935C12.72 2.03233 12.71 2.00203 12.6977 2.00203C12.6855 2.00203 12.6706 1.9847 12.6646 1.96353C12.6561 1.93394 12.6529 1.93295 12.6508 1.95913ZM12.7497 4.73421C12.7466 6.10987 12.7521 7.24001 12.762 7.24562C12.7783 7.25486 12.7781 5.51163 12.7617 3.13503C12.7583 2.63893 12.7529 3.35855 12.7497 4.73421ZM12.712 7.31871C12.7032 7.32674 12.696 7.35644 12.696 7.38471C12.696 7.41293 12.6852 7.43603 12.672 7.43603C12.6588 7.43603 12.6493 7.4583 12.6508 7.48553C12.6529 7.52276 12.6563 7.52551 12.6646 7.49653C12.6706 7.47535 12.6855 7.45803 12.6977 7.45803C12.71 7.45803 12.72 7.42772 12.72 7.39071C12.72 7.35149 12.73 7.32911 12.744 7.33703C12.7572 7.34451 12.768 7.34016 12.768 7.32735C12.768 7.30122 12.7364 7.29633 12.712 7.31871ZM12.5784 7.5749C12.5618 7.60334 12.5167 7.64365 12.4781 7.66455C12.4054 7.70393 12.391 7.73182 12.4317 7.75486C12.4453 7.76256 12.4493 7.75376 12.4412 7.73418C12.4324 7.71323 12.44 7.70003 12.4609 7.70003C12.4796 7.70003 12.5174 7.68083 12.5449 7.65735C12.5724 7.63386 12.6032 7.62149 12.6133 7.62985C12.6234 7.63821 12.6245 7.63348 12.6157 7.6194C12.6069 7.60532 12.6102 7.59047 12.6231 7.5864C12.6359 7.58233 12.6379 7.56649 12.6275 7.55109C12.6137 7.53074 12.6004 7.53717 12.5784 7.5749ZM12.1326 15.5971C12.124 15.6099 12.1343 15.6265 12.1555 15.6339C12.2083 15.6525 12.2248 15.6321 12.1827 15.6001C12.1591 15.5821 12.1433 15.5811 12.1326 15.5971ZM12.2433 15.6275C12.2481 15.6302 12.2709 15.6457 12.294 15.6619C12.3293 15.6867 12.336 15.6865 12.336 15.6604C12.336 15.6433 12.3132 15.6278 12.2853 15.6259C12.2574 15.624 12.2385 15.6246 12.2433 15.6275ZM12.3847 15.6852C12.355 15.7024 12.3569 15.7084 12.3967 15.7223C12.4711 15.7485 12.593 15.8593 12.6248 15.9298C12.6409 15.9653 12.6713 15.9933 12.6929 15.9923C12.7178 15.9912 12.7211 15.9865 12.702 15.9795C12.6855 15.9733 12.6718 15.9568 12.6716 15.9427C12.6715 15.9286 12.6136 15.8653 12.5431 15.8021C12.4725 15.7389 12.4205 15.682 12.4274 15.6756C12.4473 15.6574 12.4234 15.6627 12.3847 15.6852ZM12.6997 16.049C12.6958 16.1079 12.7324 16.161 12.7544 16.1284C12.7634 16.115 12.7601 16.104 12.7471 16.104C12.734 16.104 12.7187 16.0818 12.7129 16.0545C12.704 16.0118 12.7021 16.0111 12.6997 16.049ZM12.7556 18.711C12.7556 20.0904 12.7585 20.658 12.762 19.9722C12.7655 19.2865 12.7655 18.1579 12.762 17.4642C12.7585 16.7706 12.7556 17.3316 12.7556 18.711ZM12.7244 21.3008C12.7088 21.3151 12.696 21.3496 12.696 21.3774C12.696 21.4053 12.6852 21.428 12.672 21.428C12.6588 21.428 12.648 21.4415 12.648 21.4579C12.648 21.4999 12.4592 21.692 12.418 21.692C12.3993 21.692 12.384 21.6995 12.384 21.7086C12.384 21.7278 12.2822 21.7692 12.186 21.7892C12.1497 21.7967 12.12 21.8126 12.12 21.8245C12.12 21.8526 12.1609 21.8523 12.18 21.824C12.1882 21.8119 12.2266 21.802 12.2654 21.802C12.3043 21.802 12.336 21.7921 12.336 21.78C12.336 21.7679 12.3522 21.758 12.372 21.758C12.3918 21.758 12.408 21.7481 12.408 21.736C12.408 21.7239 12.4172 21.714 12.4285 21.714C12.4643 21.714 12.672 21.5167 12.672 21.4827C12.672 21.4647 12.6828 21.45 12.696 21.45C12.7092 21.45 12.72 21.4212 12.72 21.3858C12.72 21.3506 12.7335 21.3173 12.75 21.3119C12.7665 21.3065 12.7739 21.2959 12.7664 21.2884C12.7589 21.2809 12.74 21.2865 12.7244 21.3008Z" fill="#14A7FC"/>
</g>
<defs>
<clipPath id="clip0_5_31">
<rect width="24" height="22" fill="white"/>
</clipPath>
</defs>
</svg>
