<svg width="136" height="29" viewBox="0 0 136 29" fill="none" xmlns="http://www.w3.org/2000/svg">
<path d="M0 0.734178H1.31102V27.2013H10.5279V28.2658H0V0.734178ZM14.7086 0.734178H16.0196V28.2658H14.7086V0.734178ZM27.0709 1.79873H20.198V0.734178H35.1753V1.79873H28.3819V28.2658H27.0709V1.79873ZM39.1459 0.734178H49.7532V1.79873H40.4569V16.7025H48.2038V17.7671H40.4569V28.2658H39.1459V0.734178ZM68.1499 29C65.369 29 62.7867 28.327 60.403 26.981C58.0193 25.635 56.1257 23.8485 54.7219 21.6215C53.3447 19.37 52.6561 16.9595 52.6561 14.3899C52.6561 11.8447 53.358 9.47088 54.7617 7.26835C56.1654 5.04135 58.0591 3.27932 60.4427 1.98228C62.8264 0.66076 65.4087 0 68.1897 0C70.9971 0 73.5794 0.648528 75.9366 1.94557C78.2938 3.24262 80.161 5.00464 81.5382 7.23165C82.9419 9.43418 83.6438 11.8203 83.6438 14.3899C83.6438 17.0329 82.9419 19.4802 81.5382 21.7316C80.161 23.9586 78.2805 25.7329 75.8968 27.0544C73.5397 28.3515 70.9574 29 68.1499 29ZM68.1499 27.9354C70.6925 27.9354 73.0497 27.3359 75.2215 26.1367C77.3933 24.9131 79.1148 23.2734 80.3861 21.2177C81.6839 19.1375 82.3327 16.8861 82.3327 14.4633C82.3327 12.065 81.6971 9.83798 80.4258 7.78228C79.1545 5.72659 77.433 4.09916 75.2612 2.9C73.0894 1.67637 70.7322 1.06456 68.1897 1.06456C65.6206 1.06456 63.2502 1.67637 61.0784 2.9C58.9066 4.09916 57.1718 5.72659 55.8741 7.78228C54.6028 9.83798 53.9671 12.065 53.9671 14.4633C53.9671 16.8861 54.6028 19.1375 55.8741 21.2177C57.1718 23.2734 58.9066 24.9131 61.0784 26.1367C63.2502 27.3359 65.6074 27.9354 68.1499 27.9354ZM89.0382 0.734178H90.7465C93.8452 0.734178 96.2289 1.49283 97.8975 3.01013C99.5925 4.52743 100.44 6.69325 100.44 9.50759C100.44 11.1228 100.016 12.6034 99.1688 13.9494C98.3477 15.2954 97.2221 16.3599 95.7919 17.143C94.3617 17.9017 92.7858 18.281 91.0643 18.281H90.7862L101.036 28.2658H99.3277L90.3095 19.5291V28.2658H89.0382V0.734178ZM91.0246 17.2165C92.5342 17.2165 93.9115 16.8738 95.1563 16.1886C96.4011 15.5034 97.381 14.5857 98.0961 13.4354C98.8112 12.2608 99.1688 10.9637 99.1688 9.5443C99.1688 7.07257 98.4404 5.16372 96.9837 3.81772C95.5535 2.47173 93.5009 1.79873 90.8259 1.79873H90.3095V17.2165H91.0246ZM136 0.734178V28.2658H134.689V2.4962L120.625 28.7797L106.641 2.16582V28.2658H105.33V0.734178H107.197L120.625 26.2835L134.173 0.734178H136Z" fill="black"/>
</svg>
