<svg width="25" height="24" viewBox="0 0 25 24" fill="none" xmlns="http://www.w3.org/2000/svg">
<path d="M22.2798 2.316C21.6896 1.66643 20.989 1.15124 20.2179 0.799851C19.4468 0.448466 18.6204 0.267783 17.7858 0.268128C16.9512 0.268473 16.1249 0.449839 15.3541 0.801861C14.5832 1.15388 13.8829 1.66966 13.2932 2.31972L12.5235 3.17732L11.7601 2.32158L11.7552 2.31611C11.1653 1.66685 10.4651 1.15182 9.69442 0.800443C8.92375 0.449064 8.09775 0.268211 7.26359 0.268211C6.42942 0.268211 5.60342 0.449064 4.83275 0.800443C4.06208 1.15182 3.36183 1.66685 2.77198 2.31611L2.42907 2.69357C1.23783 4.0048 0.568604 5.78322 0.568604 7.63759C0.568604 9.49195 1.23783 11.2704 2.42907 12.5816L11.4794 22.5435L12.5015 23.7222L12.5258 23.6953L12.5523 23.7244L13.5098 22.6123L22.6227 12.5814C23.8121 11.2692 24.4801 9.49114 24.4801 7.63742C24.4801 5.78371 23.8121 4.00568 22.6227 2.6934L22.2798 2.316ZM21.4995 11.3455L12.5258 21.2233L3.5519 11.3455C2.65847 10.362 2.15655 9.02822 2.15655 7.63745C2.15655 6.24668 2.65847 4.91287 3.5519 3.92944L3.89486 3.55199C4.78785 2.56905 5.99887 2.01661 7.26175 2.01609C8.52462 2.01557 9.73602 2.567 10.6297 3.5492L12.5201 5.66792L14.4194 3.55199C14.8618 3.06504 15.387 2.67877 15.965 2.41524C16.543 2.1517 17.1625 2.01606 17.7881 2.01606C18.4138 2.01606 19.0333 2.1517 19.6113 2.41524C20.1893 2.67877 20.7145 3.06504 21.1568 3.55199L21.4997 3.92939C22.3918 4.91363 22.8928 6.24717 22.8928 7.63747C22.8927 9.02777 22.3917 10.3613 21.4995 11.3455Z" fill="#461504"/>
</svg>
